<svg xmlns="http://www.w3.org/2000/svg" width="50" height="50"><path fill="currentColor" stroke="currentColor" d="M25.868.8C17.301.748 6.924 30.007 6.115 49.155c-.03.9.673.873.686.076.505-9.394 8.251-44.072 19.067-44.083 7.477-.02 15.342 20.448 17.237 31.04.19.73.905.55.763-.152-.811-7.878-9.51-35.25-18-35.236Zm.072 9.38a1.754 1.754 0 0 0-.072 0 1.711 1.711 0 0 0-1.754 1.755 1.783 1.783 0 0 0 1.754 1.83 1.823 1.823 0 0 0 1.83-1.83 1.754 1.754 0 0 0-1.758-1.756z" style="stroke-width:1.27114"/></svg>