<svg xmlns="http://www.w3.org/2000/svg" viewBox="0 0 800 800"><defs><clipPath id="b"><path fill="red" d="M1459.1 573.98v137.38h76.441c.028-.261.051-.527.08-.781 0 .223-.012.463.01.625.014.122.037-.245.027-.367l-.033-.3v-.017c.1-.847.175-1.397-.012-.209v.092c-.037-.354-.077-.708-.117-1.063-.081-.718-.161-1.437-.244-2.156-.065-.563-.134-1.126-.201-1.69-.123-1.584-.285-3.145-.229-4.732v-2.222c0-1.342.01-2.684 0-4.026 0-.658-.036-3.52.01-4.265-.075-1.176-.102-2.291-.01-3.301-.044-.277-.029-.128-.094-.57-.536-3.647-.945-7.326-1.094-11.01v-1.022c-.096-1.197-.18-2.607-.037-1.719.038-.591.077-1.183.114-1.775-.01.107-.02.26-.02.195 0-.131.042-.526.034-.394 0 .066-.01.133-.014.199.01-.068 0-.083.014-.123.065-.276.122.561.25.814.097.194-.088-.423-.131-.634-.617-2.934-1.887-5.741-1.74-8.819v-.392a15.383 15.383 0 0 1-.01-1.844c-.135-.5-.271-1.001-.4-1.504-.19-.748-.284-1.52-.52-2.256-.305-.948-.77-1.862-1.141-2.785-.135-2.821.13-5.69-.406-8.463-.053-.275-.104-.274-.153-.13-.05.377-.093.651-.135.868-.1.92-.186 2.231-.242 2.89v.147l.248 1.893c.086.348.179.694.248 1.059.044.23-.13-.45-.197-.674l-.05-.385c-.154-.616-.28-1.232-.249-1.893l-.207-1.576c0-.048.01-.27-.01-.738-.017-.864-.029-1.453.035-2.17-.013-.337-.032-.7-.039-.965-.176-4.25-.401-8.5-.496-12.752.01-1.204-.021-2.408.01-3.611.01-.137.01-.274.016-.41-.658-4.08-.919-8.235-2.125-12.213l1.469-.367c-.337-2.234.059-3.528 1.414-4.315a11.472 11.472 0 0 1-.125-2.142c12.87-.321 8.987-.219 12.363-.295v-.008l-1.363-.032c.479-.008.883-.009 1.343-.015v-.004c-8.93-.15-6.515-.095-1.345.02-3.925.062-8.018.126-10.996.13-.111 0 0-.221 0-.332v-3.607h10.644c-.216-.444-.252-.552-.551-1.17-11.86-10.862-6.949-23.31 4.033-23.273 3.88.014 8.518 1.587 13.436 5.34.68.518 1.42.964 2.037 1.554 1.033.988 2.548 2.546 4 4.04-2.35-9.076 2.423-15.322 9.309-15.29 4.109.02 8.967 2.28 13.51 7.498l6.84-7.939zm128.84 10.449c-.039-.034-.09.176-.147.521.078.11.148.22.225.329-.01-.174-.01-.347-.022-.52-.015-.206-.034-.31-.057-.33zm23.375 9.12c-.012 0-.023.002-.035.003.028-.14-.097.616.035-.004zm1.8.556c.097.582.222 1.338.512 2.968.03.194.047.392.07.588v-3.369c-.194-.062-.383-.121-.582-.187zm-20.097 23.133c-.662.786-1.284 1.598-1.752 2.504.02.16.06.315.076.476.43-.205 1.314-.972 2.121-1.787a144.45 144.45 0 0 0-.445-1.193zm-7.28 2.187c.647 1.804 1.286 3.611 1.905 5.424a344.889 344.889 0 0 1 3.129 9.68c.13.422.278.842.425 1.263-.014-.133-.047-.247-.043-.398 0-.154.013-.308.014-.463a7.379 7.379 0 0 0-.41-2.56c-1.446-5.198.302 1-1.261-4.264-.045-.15-1.195-3.865-1.141-4.572.023-.299.089-.593.148-.887-.9-.989-1.83-2.092-2.765-3.223zm5.57 5.94c.194.686.388 1.371.593 2.054 1.442 4.824-.125-.705 1.265 4.282.35 1.07.51 2.13.5 3.248 0 .17-.012.34-.012.51-.046 1.824-1.415 2.259-2.107 1.374.238.742.436 1.492.496 2.264.2 2.556-.21 5.124-.314 7.686-1.046.052-2.092.114-3.137.181-.349.8-.728 1.59-1.026 2.403-1.816 4.947-3.43 6.08-4.927 5.068.01 4.584.01 9.168.01 13.752v19.279h-14.88c0 .453 0 .906.01 1.36.022.757.137 1.511.147 2.269.018 1.354 0 2.71 0 4.064.018 2.352-.298 4.692-.383 7.037-.053 1.468.023 2.952.061 4.42.046 1.58.038 3.162.027 4.744h46.068v-82.975l-18.92-.05c0-.611 0-1.223-.01-1.835-.957.4-2.139-.098-3.459-1.136zm-62.811 1.338v.006-.006zm0 .006v.01c.365 1.111 1.497 4.435 1.129 3.324-.37-1.114-.752-2.223-1.13-3.334zm5.027 27.488c-.147.178-.82 2.173-1.04 3.002-.133.495-.18 1.009-.206 1.523.445-1.426.963-2.835 1.248-4.299v-.226zm-1.158 6.662c0 .025 0 .05.01.076.037.264.296 1.026.23.767-.072-.283-.156-.563-.238-.843z"/></clipPath><clipPath id="c"><path fill="red" d="M381.7.895v496.74h359.02V.895zM509.89 52.85l.006.01-.133.095-.168.123-.172.127-.173.127c-.059.044-.117.088-.174.133l-.178.138-.17.14a4.321 4.321 0 0 1-.326.241l-.121.08a.802.802 0 0 0-.074.059c-.02.017-.038.035-.057.053l-.049.045a.94.94 0 0 0-.037.037l-.027.025v.002l.006.008-.045.03-.092.058-.084.055-.08.05c-.025.016-.048.033-.072.05l-.069.042-.064.043a3.402 3.402 0 0 1-.11.072l-.054.037-.057.04c-.02.013-.037.027-.056.04l-.059.042-.059.04-.056.042-.053.039c-.018.013-.038.028-.057.04l-.058.042-.06.045c-.022.015-.042.033-.063.048l-.06.047-.055.041c-.017.013-.034.026-.051.037-.017.012-.035.021-.053.032l-.053.029-.05.03-.051.027-.053.029-.053.03-.056.029-.06.03-.06.034-.06.033-.062.035-.065.036c-.02.01-.04.023-.06.035-.02.01-.038.022-.057.033l-.053.031a1.84 1.84 0 0 0-.048.031l-.05.032-.048.03-.045.032-.045.03-.043.029a1.278 1.278 0 0 0-.08.058l-.039.03-.04.03-.038.032-.041.033-.043.034c-.015.01-.029.021-.043.033l-.043.035-.043.031-.045.033c-.016.011-.032.02-.047.032a7.459 7.459 0 0 1-.047.033l-.049.033-.047.033c-.016.01-.033.02-.048.031l-.05.034-.046.03-.045.03-.045.03c-.014.009-.027.017-.04.027l-.044.03c-.015.009-.03.02-.045.028l-.047.03-.049.031-.05.033-.051.035-.053.035a4.14 4.14 0 0 1-.056.038c-.019.011-.035.023-.053.035l-.055.037-.053.033a7.767 7.767 0 0 0-.05.035c-.017.011-.033.023-.05.033l-.046.032-.043.029-.043.03a3.43 3.43 0 0 0-.08.055l-.035.022a.356.356 0 0 1-.034.02l-.03.018-.034.017-.031.016-.033.017-.034.02-.035.017-.03.016-.028.014-.031.015-.032.018-.03.02-.034.02c-.012.009-.025.017-.037.024l-.037.026-.041.027-.041.03-.045.033-.047.035-.049.039a4.373 4.373 0 0 1-.053.039l-.058.043a6.068 6.068 0 0 0-.12.088 3.822 3.822 0 0 1-.054.039l-.053.037-.048.033-.053.035-.05.035-.05.034-.05.035-.057.04-.059.044c-.022.016-.045.03-.066.047-.024.017-.047.036-.07.054l-.077.059a10.17 10.17 0 0 0-.152.117 8.697 8.697 0 0 1-.07.053l-.063.049-.056.04c-.017.013-.032.025-.05.036l-.044.03a1.036 1.036 0 0 1-.04.023l-.028.017-.03.018-.03.017-.03.018-.03.02-.029.019-.031.02-.031.019-.035.022a.573.573 0 0 0-.032.021l-.029.023-.03.022-.029.021-.033.024-.029.025c-.01.009-.022.015-.033.024l-.031.023-.034.025-.029.022-.027.023-.028.02-.027.021-.03.024c-.01.008-.018.016-.029.023l-.03.024-.032.023-.027.022-.024.017-.023.018-.023.017-.024.018-.025.018c-.008.006-.016.01-.024.017l-.027.02-.025.02c-.01.006-.017.014-.026.02l-.025.02-.026.02-.027.02a2.692 2.692 0 0 1-.056.038l-.03.02-.03.021-.03.018-.028.018c-.009.005-.018.01-.027.017l-.03.02-.03.021-.03.02-.031.021-.027.018-.028.02-.027.019-.025.017-.028.022-.025.021-.03.024-.029.023-.029.026-.027.021-.028.022-.027.019-.027.022-.028.021-.027.021-.03.024-.03.023-.034.026-.03.023-.036.028-.035.025-.035.025-.036.026a1.975 1.975 0 0 1-.062.043c-.01.006-.018.014-.027.021-.01.007-.017.015-.026.022l-.027.021-.028.024-.029.023-.03.025-.028.026-.03.023-.029.024-.03.023-.029.022-.03.023c-.011.007-.022.012-.032.02l-.031.021-.03.022-.029.019-.027.02c-.01.006-.02.012-.03.02l-.029.02-.029.022-.03.022-.029.021-.027.021-.027.022-.028.021-.027.02a4.618 4.618 0 0 1-.055.039l-.027.02-.027.02c-.01.005-.019.01-.028.017l-.025.017-.024.016-.021.016-.023.017-.024.016-.021.015-.024.014a1.358 1.358 0 0 0-.02.014l-.02.017c-.008.006-.017.01-.024.016l-.02.016c-.007.004-.012.009-.02.013a.436.436 0 0 1-.019.014l-.017.012-.02.01-.017.01-.02.009-.017.01-.02.01-.018.007-.019.008-.018.008-.017.008a1.351 1.351 0 0 1-.018.008l-.017.007-.018.008-.018.008-.015.008-.018.006-.004-.008.018-.008.017-.008.016-.007.018-.008.017-.008.018-.008.017-.008.018-.007.02-.008.017-.008.02-.01.017-.008.018-.01.02-.01.017-.011.02-.012a.426.426 0 0 0 .036-.025l.022-.018.021-.015.022-.016.021-.014.022-.015.021-.016.024-.016.023-.015.024-.016.023-.017.025-.018.026-.018c.009-.006.018-.01.027-.017l.027-.02.03-.02.025-.019c.01-.006.02-.012.03-.02l.025-.02.027-.022.03-.022.027-.021.03-.024c.01-.006.02-.012.029-.02l.029-.02.03-.022c.008-.006.02-.013.028-.02s.019-.013.028-.02l.031-.019.03-.021.032-.022.03-.021.03-.024.03-.021c.01-.008.017-.016.028-.023l.029-.024.03-.025.028-.024a.737.737 0 0 1 .03-.025l.027-.024.027-.021c.01-.007.017-.014.026-.022l.027-.021.03-.02.033-.023.037-.025.035-.026.035-.027.033-.025.033-.026.032-.023.03-.024.03-.023.027-.022.028-.021.027-.022.027-.021.028-.02.027-.023.03-.024.029-.023.03-.023.026-.022.026-.021.025-.02.028-.017.027-.02.027-.02c.01-.007.021-.012.031-.02l.032-.02.029-.02.03-.02c.008-.006.02-.011.029-.017l.027-.018.03-.017.028-.022.03-.021.03-.02.026-.02c.01-.006.019-.01.028-.017l.025-.02c.01-.006.017-.014.026-.021l.025-.02.027-.019.026-.02.023-.017.025-.018.024-.017.025-.018.022-.017.023-.02.027-.02.032-.023.03-.023.03-.024.03-.023.027-.022c.009-.007.018-.012.027-.02l.027-.023.03-.021.033-.026.031-.023.033-.025.032-.024.03-.023.03-.022.03-.023.029-.022.033-.021.033-.022.033-.021.031-.02.03-.02c.01-.005.02-.01.03-.017l.028-.017.03-.02.029-.017.031-.018.037-.023.045-.028.049-.035.057-.041c.02-.016.04-.033.062-.049l.07-.053a6.1 6.1 0 0 0 .153-.117l.078-.06.07-.053.065-.049.06-.043.057-.039.05-.035.05-.035c.016-.012.033-.022.05-.033l.053-.036.049-.035.052-.035.055-.039.059-.045.06-.045.057-.04c.017-.014.037-.027.054-.04l.05-.039.046-.035.045-.033.041-.03.041-.029.04-.025.034-.022.033-.021.034-.02.031-.017.03-.016.029-.016.03-.015a3.48 3.48 0 0 0 .034-.018l.033-.017.033-.018.034-.018.03-.017.034-.016c.011-.005.021-.012.031-.02l.035-.023.04-.03.04-.026c.015-.01.03-.018.043-.028l.043-.031.047-.031.05-.031.05-.036.053-.035.054-.035.053-.037.057-.035.052-.037.051-.034.051-.033c.016-.01.032-.023.049-.033l.047-.03.045-.027.043-.029.04-.027.044-.03.046-.029c.017-.01.032-.02.047-.031l.05-.033c.015-.011.03-.023.046-.033.016-.011.033-.02.049-.032l.049-.033.047-.033.044-.033c.016-.011.032-.02.047-.032a1.907 1.907 0 0 0 .086-.066l.043-.033.043-.033.041-.034.04-.03.039-.032.039-.03.039-.03.04-.03.044-.03.045-.029.045-.029.048-.031.05-.031.048-.034.053-.03.056-.034c.02-.012.042-.022.063-.033l.062-.037.063-.035.06-.034.06-.03c.02-.011.04-.024.06-.034l.056-.03.055-.029.05-.027.051-.027.053-.03.05-.029.054-.033.05-.035.055-.043a2.172 2.172 0 0 1 .123-.094l.06-.045.06-.041.054-.041.055-.04.056-.04.059-.041c.019-.014.04-.027.058-.041l.057-.041.057-.04.054-.036.053-.035.055-.038.066-.043.068-.043c.025-.016.048-.033.073-.048l.08-.051.084-.055.092-.06.011-.008-.002-.002.026-.024c.01-.009.018-.02.027-.029.012-.013.024-.023.037-.035l.049-.047.059-.053a.797.797 0 0 1 .074-.058c.04-.028.082-.055.123-.082a4.286 4.286 0 0 0 .322-.24l.17-.14.18-.138a17.181 17.181 0 0 1 .347-.262l.172-.125.168-.123.133-.097z"/></clipPath><clipPath id="a"><path fill="red" d="M381.7.895v496.74h359.02V.895zM509.89 52.85l.006.01-.133.095-.168.123-.172.127-.173.127c-.059.044-.117.088-.174.133l-.178.138-.17.14a4.321 4.321 0 0 1-.326.241l-.121.08a.802.802 0 0 0-.074.059c-.02.017-.038.035-.057.053l-.049.045a.94.94 0 0 0-.037.037l-.027.025v.002l.006.008-.045.03-.092.058-.084.055-.08.05c-.025.016-.048.033-.072.05l-.069.042-.064.043a3.402 3.402 0 0 1-.11.072l-.054.037-.057.04c-.02.013-.037.027-.056.04l-.059.042-.059.04-.056.042-.053.039c-.018.013-.038.028-.057.04l-.058.042-.06.045c-.022.015-.042.033-.063.048l-.06.047-.055.041c-.017.013-.034.026-.051.037-.017.012-.035.021-.053.032l-.053.029-.05.03-.051.027-.053.029-.053.03-.056.029-.06.03-.06.034-.06.033-.062.035-.065.036c-.02.01-.04.023-.06.035-.02.01-.038.022-.057.033l-.053.031a1.84 1.84 0 0 0-.048.031l-.05.032-.048.03-.045.032-.045.03-.043.029a1.278 1.278 0 0 0-.08.058l-.039.03-.04.03-.038.032-.041.033-.043.034c-.015.01-.029.021-.043.033l-.043.035-.043.031-.045.033c-.016.011-.032.02-.047.032a7.459 7.459 0 0 1-.047.033l-.049.033-.047.033c-.016.01-.033.02-.048.031l-.05.034-.046.03-.045.03-.045.03c-.014.009-.027.017-.04.027l-.044.03c-.015.009-.03.02-.045.028l-.047.03-.049.031-.05.033-.051.035-.053.035a4.14 4.14 0 0 1-.056.038c-.019.011-.035.023-.053.035l-.055.037-.053.033a7.767 7.767 0 0 0-.05.035c-.017.011-.033.023-.05.033l-.046.032-.043.029-.043.03a3.43 3.43 0 0 0-.08.055l-.035.022a.356.356 0 0 1-.034.02l-.03.018-.034.017-.031.016-.033.017-.034.02-.035.017-.03.016-.028.014-.031.015-.032.018-.03.02-.034.02c-.012.009-.025.017-.037.024l-.037.026-.041.027-.041.03-.045.033-.047.035-.049.039a4.373 4.373 0 0 1-.053.039l-.058.043a6.068 6.068 0 0 0-.12.088 3.822 3.822 0 0 1-.054.039l-.053.037-.048.033-.053.035-.05.035-.05.034-.05.035-.057.04-.059.044c-.022.016-.045.03-.066.047-.024.017-.047.036-.07.054l-.077.059a10.17 10.17 0 0 0-.152.117 8.697 8.697 0 0 1-.07.053l-.063.049-.056.04c-.017.013-.032.025-.05.036l-.044.03a1.036 1.036 0 0 1-.04.023l-.028.017-.03.018-.03.017-.03.018-.03.02-.029.019-.031.02-.031.019-.035.022a.573.573 0 0 0-.032.021l-.029.023-.03.022-.029.021-.033.024-.029.025c-.01.009-.022.015-.033.024l-.031.023-.034.025-.029.022-.027.023-.028.02-.027.021-.03.024c-.01.008-.018.016-.029.023l-.03.024-.032.023-.027.022-.024.017-.023.018-.023.017-.024.018-.025.018c-.008.006-.016.01-.024.017l-.027.02-.025.02c-.01.006-.017.014-.026.02l-.025.02-.026.02-.027.02a2.692 2.692 0 0 1-.056.038l-.03.02-.03.021-.03.018-.028.018c-.009.005-.018.01-.027.017l-.03.02-.03.021-.03.02-.031.021-.027.018-.028.02-.027.019-.025.017-.028.022-.025.021-.03.024-.029.023-.029.026-.027.021-.028.022-.027.019-.027.022-.028.021-.027.021-.03.024-.03.023-.034.026-.03.023-.036.028-.035.025-.035.025-.036.026a1.975 1.975 0 0 1-.062.043c-.01.006-.018.014-.027.021-.01.007-.017.015-.026.022l-.027.021-.028.024-.029.023-.03.025-.028.026-.03.023-.029.024-.03.023-.029.022-.03.023c-.011.007-.022.012-.032.02l-.031.021-.03.022-.029.019-.027.02c-.01.006-.02.012-.03.02l-.029.02-.029.022-.03.022-.029.021-.027.021-.027.022-.028.021-.027.02a4.618 4.618 0 0 1-.055.039l-.027.02-.027.02c-.01.005-.019.01-.028.017l-.025.017-.024.016-.021.016-.023.017-.024.016-.021.015-.024.014a1.358 1.358 0 0 0-.02.014l-.02.017c-.008.006-.017.01-.024.016l-.02.016c-.007.004-.012.009-.02.013a.436.436 0 0 1-.019.014l-.017.012-.02.01-.017.01-.02.009-.017.01-.02.01-.018.007-.019.008-.018.008-.017.008a1.351 1.351 0 0 1-.018.008l-.017.007-.018.008-.018.008-.015.008-.018.006-.004-.008.018-.008.017-.008.016-.007.018-.008.017-.008.018-.008.017-.008.018-.007.02-.008.017-.008.02-.01.017-.008.018-.01.02-.01.017-.011.02-.012a.426.426 0 0 0 .036-.025l.022-.018.021-.015.022-.016.021-.014.022-.015.021-.016.024-.016.023-.015.024-.016.023-.017.025-.018.026-.018c.009-.006.018-.01.027-.017l.027-.02.03-.02.025-.019c.01-.006.02-.012.03-.02l.025-.02.027-.022.03-.022.027-.021.03-.024c.01-.006.02-.012.029-.02l.029-.02.03-.022c.008-.006.02-.013.028-.02s.019-.013.028-.02l.031-.019.03-.021.032-.022.03-.021.03-.024.03-.021c.01-.008.017-.016.028-.023l.029-.024.03-.025.028-.024a.737.737 0 0 1 .03-.025l.027-.024.027-.021c.01-.007.017-.014.026-.022l.027-.021.03-.02.033-.023.037-.025.035-.026.035-.027.033-.025.033-.026.032-.023.03-.024.03-.023.027-.022.028-.021.027-.022.027-.021.028-.02.027-.023.03-.024.029-.023.03-.023.026-.022.026-.021.025-.02.028-.017.027-.02.027-.02c.01-.007.021-.012.031-.02l.032-.02.029-.02.03-.02c.008-.006.02-.011.029-.017l.027-.018.03-.017.028-.022.03-.021.03-.02.026-.02c.01-.006.019-.01.028-.017l.025-.02c.01-.006.017-.014.026-.021l.025-.02.027-.019.026-.02.023-.017.025-.018.024-.017.025-.018.022-.017.023-.02.027-.02.032-.023.03-.023.03-.024.03-.023.027-.022c.009-.007.018-.012.027-.02l.027-.023.03-.021.033-.026.031-.023.033-.025.032-.024.03-.023.03-.022.03-.023.029-.022.033-.021.033-.022.033-.021.031-.02.03-.02c.01-.005.02-.01.03-.017l.028-.017.03-.02.029-.017.031-.018.037-.023.045-.028.049-.035.057-.041c.02-.016.04-.033.062-.049l.07-.053a6.1 6.1 0 0 0 .153-.117l.078-.06.07-.053.065-.049.06-.043.057-.039.05-.035.05-.035c.016-.012.033-.022.05-.033l.053-.036.049-.035.052-.035.055-.039.059-.045.06-.045.057-.04c.017-.014.037-.027.054-.04l.05-.039.046-.035.045-.033.041-.03.041-.029.04-.025.034-.022.033-.021.034-.02.031-.017.03-.016.029-.016.03-.015a3.48 3.48 0 0 0 .034-.018l.033-.017.033-.018.034-.018.03-.017.034-.016c.011-.005.021-.012.031-.02l.035-.023.04-.03.04-.026c.015-.01.03-.018.043-.028l.043-.031.047-.031.05-.031.05-.036.053-.035.054-.035.053-.037.057-.035.052-.037.051-.034.051-.033c.016-.01.032-.023.049-.033l.047-.03.045-.027.043-.029.04-.027.044-.03.046-.029c.017-.01.032-.02.047-.031l.05-.033c.015-.011.03-.023.046-.033.016-.011.033-.02.049-.032l.049-.033.047-.033.044-.033c.016-.011.032-.02.047-.032a1.907 1.907 0 0 0 .086-.066l.043-.033.043-.033.041-.034.04-.03.039-.032.039-.03.039-.03.04-.03.044-.03.045-.029.045-.029.048-.031.05-.031.048-.034.053-.03.056-.034c.02-.012.042-.022.063-.033l.062-.037.063-.035.06-.034.06-.03c.02-.011.04-.024.06-.034l.056-.03.055-.029.05-.027.051-.027.053-.03.05-.029.054-.033.05-.035.055-.043a2.172 2.172 0 0 1 .123-.094l.06-.045.06-.041.054-.041.055-.04.056-.04.059-.041c.019-.014.04-.027.058-.041l.057-.041.057-.04.054-.036.053-.035.055-.038.066-.043.068-.043c.025-.016.048-.033.073-.048l.08-.051.084-.055.092-.06.011-.008-.002-.002.026-.024c.01-.009.018-.02.027-.029.012-.013.024-.023.037-.035l.049-.047.059-.053a.797.797 0 0 1 .074-.058c.04-.028.082-.055.123-.082a4.286 4.286 0 0 0 .322-.24l.17-.14.18-.138a17.181 17.181 0 0 1 .347-.262l.172-.125.168-.123.133-.097z"/></clipPath><clipPath id="e" clipPathUnits="userSpaceOnUse"><path d="M62.836 206.95v1.663c.765-.402 1.844-.973 3.158-1.664zm220.672 34.09c-3.354.107-9.464.234-10.801.241-3.063.015-1.03-.384-5.322.037-1.444.142-2.87.435-4.305.653-2.144.271-4.284.585-6.434.814-10.167 1.084-20.422.313-30.617.613-.373.003-8.9.08-9.728.065-2.052-.036-4.102-.13-6.153-.2l.088.007a39.633 39.633 0 0 1-.506-.02l.418.014-2.115-.145c-1.072-.047-2.145-.06-3.219-.09-.966-.033-1.936-.176-2.9-.1-.818.066-1.602.352-2.404.524-1.115.24-2.23.488-3.348.713-2.873.58-4.184.766-7.457 1.07-1.858.174-3.722.26-5.584.39-4.462.121-8.923.31-13.387.366-5.33.067-10.663 0-15.994 0h-29.025c1.745.16 3.62.332 4.181 1.774 5.356 13.771 1.576 12.5-6.396 14.588-2.184.968-4.302 2.063-6.395 3.203 6.13-1.228 12.272-2.4 18.416-3.535 1.339-.248 3.654-2.02 4.022-.71 1.844 6.565 2.59 9.913 2.17 11.788.071.61.138 1.076.213 1.75.123 1.11-1.805.68-3.186.668-.395.11-1.002.24-1.478.347 1.302 8.21-1.232 8.51-6.33 10.534-2.046.811-4.093 1.615-6.141 2.42.485.405.963.823 1.47 1.185-1.687 2.519-3.068 5.29-4.792 7.78.083.133.15.28.166.466.378 4.28-1.186 8.646-3.246 12.48.79-.13 1.374-.24.912.061-.375.245-.793.387-1.213.52-.1.179-.183.374-.285.55-.162.28-.353.534-.555.778l3.184-.899c4.214-1.19 8.353-2.685 12.642-3.564 4.624-.947 9.355-1.267 14.031-1.9 2.569.008 5.446-1.198 7.706.023 12.066 6.523 6.304 10.062-1.696 15.34-.08.053-8.414 2.511-9.32 2.898-3.24 1.382-6.415 2.906-9.602 4.406.147.116.303.217.432.362 7.49 8.36 5.604 11.546.521 14.28 2.822-.257 4.204-.02 9.375.733-1.03 4.833-.6 10.227-3.087 14.497-.533.914-3.075 1.039-5.51 1.119-.344.925-.74 1.924-1.194 2.998.403-.233.8-.478 1.208-.701 4.612-2.537 6.871-3.482 10.134-5.893.173-.367.351-.68.594-.502 1.234.906 2.385 1.911 3.514 2.945 2.495 1.78 4.981 3.572 7.162 5.713.386.38-.677.843-1.022 1.26-1.006 1.215-1.966 2.471-3.03 3.635-1.646 1.797-3.312 3.581-5.095 5.242-2.621 2.442-5.799 4.237-8.646 6.404l4.404 2.44c-.302.545-.6 1.091-.904 1.634l.23-.027c.913-.226 1.817-.484 2.73-.703.972-.233 2.603-1.495 2.946-.557 1.263 3.45 1.34 7.195 1.625 10.889.316.866.624 1.736.85 2.633.028.111-.058.147-.114.203 2.618 1.745 5.12 3.676 7.674 5.508 3.72 2.43 6.823 5.668 10.278 8.433.722 1.657 2.537 1.646 3.748 2.55 1.668 1.243 3.28 2.562 4.92 3.843 3.017 2.622 3.324 2.776 6.148 5.705.594.616 1.002 1.432 1.705 1.922.695.484 1.614.535 2.371.916 1.369.687 2.641 1.551 3.988 2.28 1.717.927 3.47 1.79 5.204 2.685 2.837 1.36 3.957 1.791 6.7 3.593.85.559 1.566 1.31 2.428 1.85.228.142.54.06.788.16 1.16.47 1.588.67 1.795.783h.002c1.196.286 2.066.62 3.378 1.014 1.707.513-3.563-.116-5.345-.16l3.756 18.117c1.233.561 2.467 1.122 3.716 1.647l11.055-14.15c1.331 1.04 2.712 2.02 3.994 3.12 5.007 4.293 5.62 5.001 7.059 6.5l3.894-1.613c.719 1.735 1.354 3.507 2.157 5.205.628 1.329.904 1.836 1.261 2.533l15.242-16.804c5.427 4.922 4.234 4.03 10.487 8.832.57.437 1.162.845 1.74 1.273l21.297-7.592c.295.827.308.81.492 1.34l7.768-5.785c3.72 4.995 2.014 2.927 7.658 9.004a242.859 242.859 0 0 0 4.484 4.717c.57.581 1.167 1.136 1.758 1.697.521.33.97.774 1.465 1.146.325.27.664.528.976.813.558.509 1.1 1.034 1.633 1.568.941.944 1.758 2.144 2.893 2.862 2.072 1.461 3.326 3.063 4.281 5.04.395.379.784.763 1.168 1.155l.81.93-.872.697c.144.429.287.868.43 1.33.294.957.122 2.003.091 3.004-.018.585-.173 2.322-.238 1.74-.2-1.78-.112-3.582-.168-5.373-.151-.336-.134-.31-.258-.588l-7.104 5.672c.328.262.69.494.99.78l-.001-.007c-1.123-1.056-1.065-.973-.801-.779 2.858 2.408 1.689 1.213 3.262 2.926l-.57.504c1.2 2.696 2.425 7.756 1.062 6.127-1.215-1.452-1.673-3.327-2.078-5.233l-6.102 5.377c.397.055.829.109 1.211.164l1.152-1.465c.66.59 1.379 1.166 1.838 1.94a76.868 76.868 0 0 0-2.99-.475l-9.727 12.37h115.585V283.45h-.061c-2.38.04-4.7.064-7.076-.1-.863-.059-2.287-.259-3.143-.298-.584-.027-1.169-.007-1.754-.01-5.138-.205-10.262-.734-15.41-.563h-68.928v-6.31c-.33-.007-.661.002-.992-.006-2.112-.05-4.221-.209-6.332-.313l.043-.873H173.524v-24.283H283.508zm-155.903 42.862c-.058.013-.328.107-.396.127.729.15 1.562.197 2.193.442-1.068-.505-1.303-.673-1.797-.569zm.87 79.797c.022.075.026.126.048.201.137.453 1.877-.178 1.405-.195-.486-.017-.969.003-1.453-.006zm-63.98 29.748c-.554.155-1.106.31-1.66.467v3.787l.647-.478c1.213-.412 2.419-.842 3.627-1.266a12.703 12.703 0 0 1-.28-1.781c-.004-.045.038-.085.046-.13a50.722 50.722 0 0 0-2.38-.599zm28.603 10.055c-.398.079-.8.133-1.196.223-.82.186-1.535.402-2.336.593 1.471.945 3.02 1.923 3.788 2.422-.19-1.014-.208-2.135-.256-3.238zm-22.522 6.172c-.553.18-1.112.376-1.664.558-1.986 1.445-3.736 2.654-6.076 3.961v84.702h151.756l-.5-.116c.022.025.025.022.053.053-.29-.073-.413-.107-.866-.219-.276.036-.662.058-1.422-.015-1.912-.184-3.88-.314-5.728-.903-1.128-.359-2.226-.805-3.332-1.226-1.848.007-.163.192-4.822-.631-1.177-.886-.116-.14-3.848-.582-2.062-1.262-3.794-3.034-5.592-4.69-.555-.099-1.111-.194-1.666-.296-1.125-.397-1.278-.52-1.748-.684 1.143 1.176 2.448 2.421 3.238 3.07.853.7 2.22.363 3.188.893.663.362-1.491-.25-2.236-.373-9.87-1.755-19.543-4.392-29.319-6.592-3.513-.848-7.032-1.672-10.539-2.545-14.294-3.558 8.56 1.853-12.033-3.076-8.5-2.034-8.974-1.65-18.479-5.54-2.606-1.065-5.022-2.546-7.533-3.82l10.72-21.148c-.98-.74-1.947-1.497-2.956-2.197-1.389-.963-2.91-1.732-4.307-2.68l-.07.276c-3.148 4.566-.598.928-.004-.327-.197-.135-.4-.262-.59-.406a94.801 94.801 0 0 1-4.41-3.562l-18.406-.309c.787-4.587.4-3.774 1.35-5.484.343-2.047 1.019-4.027 2.24-5.764.19-.27.369-.553.574-.813.027-.034-.076.123-.033.127.068.007.138-.052.173-.11.35-.573.608-1.204.832-1.849-.494-.509-.693-.728-1.769-1.83l1.307-1.275c-5.648-3.088-7.114-3.927-18.06-11.016-2.19-1.417-4.917-2.398-7.423-3.562zm142.703 88.94c.023-.004.038-.008.059-.01-.365-.084-.69-.164-1.067-.247-.338-.074.48.126 1.008.256zm.059-.01c.258.058.5.116.754.175-.281-.314-.3-.245-.754-.176zM91.795 421.19c-.305-.158.426.539.662.788.574.605 2.514 1.625 2.717 1.216-.628-.447-1.487-1.022-3.38-2.004zm2.338 11.909c.159-.32-.363.614-.545.921-.01.058-.019.117-.03.174.205-.39.301-.546.575-1.095zm193.748 61.699-4.201 4.096h10.52c-1.548-1.193-3.091-2.35-5.007-3.305-.317-.193-.866-.524-1.312-.791zm-85.063 1.67c.014-.002.092.01.137.015l1.096.141c-.047-.017-.171-.01-.143-.05.049-.07.325-.086.24-.089-.779-.032-.967-.018-1.33-.017z" style="fill:red;fill-opacity:1;fill-rule:nonzero;stroke:none"/></clipPath><clipPath id="f"><path fill="red" d="M1459.1 573.98v137.38h76.441c.028-.261.051-.527.08-.781 0 .223-.012.463.01.625.014.122.037-.245.027-.367l-.033-.3v-.017c.1-.847.175-1.397-.012-.209v.092c-.037-.354-.077-.708-.117-1.063-.081-.718-.161-1.437-.244-2.156-.065-.563-.134-1.126-.201-1.69-.123-1.584-.285-3.145-.229-4.732v-2.222c0-1.342.01-2.684 0-4.026 0-.658-.036-3.52.01-4.265-.075-1.176-.102-2.291-.01-3.301-.044-.277-.029-.128-.094-.57-.536-3.647-.945-7.326-1.094-11.01v-1.022c-.096-1.197-.18-2.607-.037-1.719.038-.591.077-1.183.114-1.775-.01.107-.02.26-.02.195 0-.131.042-.526.034-.394 0 .066-.01.133-.014.199.01-.068 0-.083.014-.123.065-.276.122.561.25.814.097.194-.088-.423-.131-.634-.617-2.934-1.887-5.741-1.74-8.819v-.392a15.383 15.383 0 0 1-.01-1.844c-.135-.5-.271-1.001-.4-1.504-.19-.748-.284-1.52-.52-2.256-.305-.948-.77-1.862-1.141-2.785-.135-2.821.13-5.69-.406-8.463-.053-.275-.104-.274-.153-.13-.05.377-.093.651-.135.868-.1.92-.186 2.231-.242 2.89v.147l.248 1.893c.086.348.179.694.248 1.059.044.23-.13-.45-.197-.674l-.05-.385c-.154-.616-.28-1.232-.249-1.893l-.207-1.576c0-.048.01-.27-.01-.738-.017-.864-.029-1.453.035-2.17-.013-.337-.032-.7-.039-.965-.176-4.25-.401-8.5-.496-12.752.01-1.204-.021-2.408.01-3.611.01-.137.01-.274.016-.41-.658-4.08-.919-8.235-2.125-12.213l1.469-.367c-.337-2.234.059-3.528 1.414-4.315a11.472 11.472 0 0 1-.125-2.142c12.87-.321 8.987-.219 12.363-.295v-.008l-1.363-.032c.479-.008.883-.009 1.343-.015v-.004c-8.93-.15-6.515-.095-1.345.02-3.925.062-8.018.126-10.996.13-.111 0 0-.221 0-.332v-3.607h10.644c-.216-.444-.252-.552-.551-1.17-11.86-10.862-6.949-23.31 4.033-23.273 3.88.014 8.518 1.587 13.436 5.34.68.518 1.42.964 2.037 1.554 1.033.988 2.548 2.546 4 4.04-2.35-9.076 2.423-15.322 9.309-15.29 4.109.02 8.967 2.28 13.51 7.498l6.84-7.939zm128.84 10.449c-.039-.034-.09.176-.147.521.078.11.148.22.225.329-.01-.174-.01-.347-.022-.52-.015-.206-.034-.31-.057-.33zm23.375 9.12c-.012 0-.023.002-.035.003.028-.14-.097.616.035-.004zm1.8.556c.097.582.222 1.338.512 2.968.03.194.047.392.07.588v-3.369c-.194-.062-.383-.121-.582-.187zm-20.097 23.133c-.662.786-1.284 1.598-1.752 2.504.02.16.06.315.076.476.43-.205 1.314-.972 2.121-1.787a144.45 144.45 0 0 0-.445-1.193zm-7.28 2.187c.647 1.804 1.286 3.611 1.905 5.424a344.889 344.889 0 0 1 3.129 9.68c.13.422.278.842.425 1.263-.014-.133-.047-.247-.043-.398 0-.154.013-.308.014-.463a7.379 7.379 0 0 0-.41-2.56c-1.446-5.198.302 1-1.261-4.264-.045-.15-1.195-3.865-1.141-4.572.023-.299.089-.593.148-.887-.9-.989-1.83-2.092-2.765-3.223zm5.57 5.94c.194.686.388 1.371.593 2.054 1.442 4.824-.125-.705 1.265 4.282.35 1.07.51 2.13.5 3.248 0 .17-.012.34-.012.51-.046 1.824-1.415 2.259-2.107 1.374.238.742.436 1.492.496 2.264.2 2.556-.21 5.124-.314 7.686-1.046.052-2.092.114-3.137.181-.349.8-.728 1.59-1.026 2.403-1.816 4.947-3.43 6.08-4.927 5.068.01 4.584.01 9.168.01 13.752v19.279h-14.88c0 .453 0 .906.01 1.36.022.757.137 1.511.147 2.269.018 1.354 0 2.71 0 4.064.018 2.352-.298 4.692-.383 7.037-.053 1.468.023 2.952.061 4.42.046 1.58.038 3.162.027 4.744h46.068v-82.975l-18.92-.05c0-.611 0-1.223-.01-1.835-.957.4-2.139-.098-3.459-1.136zm-62.811 1.338v.006-.006zm0 .006v.01c.365 1.111 1.497 4.435 1.129 3.324-.37-1.114-.752-2.223-1.13-3.334zm5.027 27.488c-.147.178-.82 2.173-1.04 3.002-.133.495-.18 1.009-.206 1.523.445-1.426.963-2.835 1.248-4.299v-.226zm-1.158 6.662c0 .025 0 .05.01.076.037.264.296 1.026.23.767-.072-.283-.156-.563-.238-.843z"/></clipPath><clipPath id="d" clipPathUnits="userSpaceOnUse"><path d="M57.191 206.95v429.876h137.916c-.23-1.082-.454-2.216-.695-3.47-.746-2.428-1.188-4.686-1.531-6.667-.306-1.128-.616-2.251-1.018-3.412-2.507 2.1-5.182 4.45-7.718 4.907-3.72.668-7.514-.809-11.272-1.213-1.919-4.348-4.64-8.426-5.758-13.045-.38-1.568.673-3.212 1.485-4.606 1.281-2.202 3.06-4.078 4.703-6.025.231-.274.607-.387.892-.604 2.79-2.12 3.108-2.464 5.86-4.816.536.78 1.064 1.776 1.591 2.879.859-.518 1.726-1.022 2.592-1.527-.936-1.33-1.75-2.667-2.144-4.016-.427-1.462 2.116-2.2 3.299-3.16 1.524-1.238 3.138-2.362 4.761-3.469-.007-.097-.017-.194-.025-.291.083-.698.2-2.287.47-3.729-4.033.393-8.302.792-10.138.971-12.571.042-10.929.698-26.68-3.984-.676-.201-2-1.797-1.308-1.66 5.024.99 9.778 3.065 14.746 4.31.289.073.527-.279.79-.418l-14.025-19.865c1.3-.96 2.306-1.707 3.727-2.727 1.493-1.07 2.939-2.212 4.494-3.19.151-.096.306-.186.457-.28-3.36-.561-6.697-1.198-9.857-2.422-1.494-.579-2.426-2.407-2.682-3.988-.031-.195-1.307-8.687.902-11.664.042-.056.086-.11.127-.165-.3-2.24.686-4.44 2.043-6.468a98.219 98.219 0 0 0-3.045-2.65c-.341.108-.688.187-1.045.152-3.36-.329-6.588-1.479-9.882-2.217-1.29-5.04-3.93-9.917-3.871-15.12.024-2.198 2.603-3.558 4.1-5.17.1-.107.232-.18.345-.275.603-.647 1.367-1.404 2.375-2.408 2.123-1.757 2.522-2.062 4.793-4.068.454-.4.919-.794 1.336-1.233 1.02-1.074 2.039-2.153 2.972-3.304.852-1.05 1.625-2.161 2.413-3.26-1.394.236-2.795.429-4.186.68-11.12 1.858-11.166 2.54-15.152-10.5-4.682-4.12-6.916-5.859-6.442-7.936-1.27-.338-2.403-.79-3.22-1.443-6.465-5.167-6.516-9.22-4.461-14.17-.539-.173-.976-.322-1.772-.54-1.078-.082-2.157-.141-3.234-.228-1.284-.103-3.745.9-3.846-.384-.016-.202-.035-.332-.05-.53-1.856-.607-1.59-2.443-.62-6.52-1.726-16.143-3.312-17.468 3.139-17.163.093-.41.527-.385 1.062-.235l.309-5.197c2.406.143 4.817.226 7.219.428 4.592.385 7.465.73 11.695 1.459 1.846.317 3.686.665 5.527 1.01 4.328.81 2.37.7 5.2.724-.332-.03-1.322-.026-.995-.088.95-.18 1.923-.183 2.885-.27 1.251-.112 2.8-.262 4.065-.265.647-.002 1.861-.566 1.941.076.016.126.018.253.033.38 1.298.166 2.598.316 3.883.556 1.12.209 3.684 1.416 4.475 1.76.352.188 1.13.602 1.847 1.013.059.013-.033-.01.053.008.331.107.662.214.994.319.039.003.121.017.156.019.042.024.174.086.127.072-.095-.028-.188-.062-.283-.091-.159-.014-.434-.053-.64-.077.209.13.499.283.623.383l.25.203c.536.08 1.751.335 2.302.418.22.102.443.197.66.307.192.045.39.061.58.113.362.1.946.444 1.188.63.539.148 1.085.273 1.611.458 1.42.5 2.99 1.937 4.346 3.57.709.192 1.42.374 2.117.602.718.235 1.395.578 2.106.834.066.024-.087-.118-.15-.147 10.442 7.217 11.709 5.27 3.573 20.278 3.322-.545 7.3-1.242 10.262.281 1.808.123 5.703 3.225 5.59 5.014 1.055 1.273 1.16 4.017 1.178 7.338.08-.01.16-.036.24-.043 1.755-.16 3.52-.267 5.281-.258.561.003 1.158.037 1.657.295 2.474 1.279 4.788 2.85 7.181 4.275-3.376-1.433-6.556-3.463-10.127-4.3-1.21-.285-3.81-.21-3.748.902.735-.531 1.58-1.29 1.887-.657 1.54 3.17 3.042 6.407 4.38 9.698 2.267-.636 4.467-1.221 7.69-2.092 10.399-1.977 7.415-2.307 10.934 20.142.34-.237.66-.5 1.012-.72.79-.495 1.717-.732 2.605-1.018.317-.102.607-.163.912-.25 1.614-1.263 3.204-2.366 4.36-1.199 3.588 3.626 5.974 8.275 7.855 13.137.363-1.997.717-3.994 1.105-5.989-1.266-11.617-1.497-11.164 6.795-11.02 1.472.104 2.943.21 4.414.31a32.344 32.344 0 0 1-.117-1.819c-.087-2.441 3.833-9.856 8.037-11.117 1.782-.535 3.621-.89 5.463-1.152.186-.027.372-.04.559-.041.561-.005 1.129.077 1.691.09 3.008.178 6.034-.004 9.041.12.172.007.213.011.373.018.27-1.408.599-2.328.936-1.326.2.595.253.85.43 1.39 1.744.08 3.382.17 5.013.272.801-1.71 1.611-3.413 2.412-5.125-.669-.921-1.282-1.896-2.004-2.908-1.73-11.823-3.078-7.056 11.883-17.477.537-.374 1.304.084 1.957.127 2.396.158 3.53.519 6.514 1.121 3.371.89 2.62.73 6.22 1.52.734.16 1.487.241 2.206.459a56.811 56.811 0 0 1 4.634 1.61c1.66.662 2.838 1.375 4.186 2.196l.117.016-.01.049c.303.184.566.338.9.539 3.146 2.188.667.436-.94-.334l-2.063 10.428c1.177.776 2.359 1.546 3.525 2.34 3.24 2.334 2.57 1.844 5.68 4.851.31.203.536.38.234.229l.215.207c.028.01.058.014.086.025 1.068.444 2.48.531 3.139 1.482 2.476 3.575 3.956 7.745 5.935 11.618-2.248 1.347-4.563 3.82-6.867 6.113-.286 1.361-.54 2.695-.658 3.926-.076.786-1.866 1.38-2.391.865-.603 1.323-2.62.997-4.908.105-.104-.009-.207-.028-.31-.047-.058.168-.12.333-.176.5 2.898 2.133 4.153 3.12 4.167 5.405 1.504 2.18 2.553 4.82 2.282 7.904-.327 3.701-1.22 5.99-2.455 7.402.519 1.884.698 3.464-.186 6.237-.134.42-.325.816-.537 1.203-.082.291-.17.582-.24.875-.227.286-.429.595-.645.89-.572.994-1.188 1.961-.916 1.327.048-.111.129-.207.182-.315-.41.583-.842 1.146-1.272 1.711.09.366.199.726.28 1.094 2.252 1.468 4.491 2.958 6.746 4.422-.189 3.584 2.494 12.629-.567 10.754-1.856-1.137-3.339-2.666-4.636-4.395 4.66 10.25 6.177 9.531-.373 10.53-.002.028 0 .057-.002.085-.001.01-1.081.14-2.067.25-.055.01-.082.011-.138.022-4.717.884-9.418 1.842-14.127 2.764-1.972.417-6.424 1.363-9.873 2.09a92.524 92.524 0 0 1-.715 5.408c.363 1.544.259 4.387-.022 8.328.11 0 .152.004.268.006l-.27.021c-.091 1.285-.242 3.444-.367 5.053 1.483 5.514 1.579 7.43-.592 8.129-.006.09-.01.116-.015.207-.1 1.57-3.108.493-4.664.719-1.094.158-2.187.315-3.282.46 2.766-1.137 8.902 10.634 11.414 15.512.822 1.595-1.406 3.223-2.322 4.836.153.433.28.872.367 1.317.56 2.827-15.817 6.837-16.459 7.058-.768.209-1.284.347-1.966.53.36 2.853.672 5.713.914 8.572.049.583-1.112.16-1.733.185-.095.681-1.23.333-2.101.258l-2.172.285c-1.158.323-2.309.669-3.465.996h148.658V206.95Zm242.871 410.675c-1.594-4.524-6.367-8.411-8.826-12.5 2.964 8.32 4.006 16.902 8.68 12.717.035-.072.105-.145.147-.217zm-8.826-12.5c-.44-1.239-.908-2.46-1.455-3.643.171 1.248.74 2.452 1.455 3.643zm-1.455-3.643a6.427 6.427 0 0 1 .23-2.869c.238-.747.565-1.173.96-1.336-1.1.147-2.198.31-3.297.463.8 1.144 1.491 2.41 2.107 3.742zm37.428-48.277c-.093-.204-.2-.467-.295-.68.004.086.004.172.008.258.099.137.186.287.287.422zm-.295-.68c-.164-3.408-.518-6.797-1.248-10.101-.25-.163-.503-.319-.754-.48-.464.569-.951 1.115-1.502 1.603-.002 0-.004.003-.006.004 1.28 3.618 2.456 6.614 3.51 8.974zm-.256-12.906c.24-.341.489-.675.735-1.012.258-.45.558-.938.675-1.228.028-.068.052-.236.08-.32-.494.852-1.056 1.677-1.49 2.56zm2.516-25.523c-1.317-1.91-2.976-3.456-4.445-4.608-.544 1.58-1.124 3.143-1.7 4.71-.178 1.686-.344 3.372-.543 5.058 2.975 1.85 3.735 2.556 4.645 4.646 1.219-4.774 2.054-8.028 2.043-9.806zm-4.445-4.608c.091-.266.186-.53.277-.797-.354-.26-.646-.474-1.05-.777l-.335-.113c-.092.202-.179.407-.271.61l.002.08c.442.306.858.591 1.377.997zm5.671-1.355c.032-.07.08-.122.104-.201.224-.75.35-1.511.473-2.274-.375.32-.75.638-1.122.912.14.458.274.923.413 1.38.023.077.078.13.132.183zm.577-2.475c.82-.7 1.645-1.493 2.472-2.316 1.44-6.86 4.096-14.828-.959-18.467a4.277 4.277 0 0 0-1.133-.58l.036.035c.033.032.104.153.068.123-.069-.058-.134-.12-.201-.18-1.244-.388-2.508-.101-3.785.635 1.957 6.757 4.59 13.968 3.502 20.75zM198.453 469.27c-.5-.605-1.206-.903-2.244-.752.293.96.383 1.926.38 2.894.575-.548.983-.897 1.59-1.484.19-.183.258-.411.274-.658zm-2.244-.752c-.006-.02-.003-.04-.01-.061-.676-2.162-1.873-3.449-3.336-4.201-.496-.034-.88.09-.922.61-.14 1.757.144 3.473.627 5.173 1.505-.88 2.713-1.387 3.64-1.521zm-28.979-30.881a35.885 35.885 0 0 0-2.417-.473c1.237.406 2.492.758 3.753 1.092-.45-.195-.897-.397-1.336-.62zm-2.417-.473c-.121-.04-.246-.065-.366-.107l.059.047c.103.017.204.043.307.06zm-.366-.107-.18-.145c-.082-.012-.188-.031-.23-.033.03.027.058.057.088.084.105.039.217.057.322.094zm-.322-.094-.01-.004c-.173-.065-.17-.084-.078-.08-.133-.117-.25-.254-.39-.361-.137-.105-.254-.135-.401-.21-1.547-.185-3.777-.518-2.8-.16 1.215.447 2.49.685 3.773.899l-.094-.084zm134.578 22.715c.013.018.1.059.277.13 1.498.604 3.095.928 4.622 1.452-.077-.037-.132-.098-.211-.131-1.239-.519-4.776-1.579-4.688-1.451zm28.354 23.047a1.76 1.76 0 0 0-.551.13c1.022.252 2.053.471 3.068.76.487.139.979.272 1.453.448-.094-.089-.194-.172-.289-.26-.804-.4-2.429-1.172-3.681-1.078zM233.65 501.6c-.979.037-2.848.093-3.517.818a79.116 79.116 0 0 1 3.517-.818zm-88.328 2.27c-.387.116-.959.587-.722.45.294-.17.614-.293.93-.423-.059-.026-.115-.056-.208-.028zm97.125 10.798c-.044-.036-.228.22-.422.545.054.142.116.28.168.424.077-.27.168-.535.243-.805.027-.098.028-.15.011-.164zm69.668 18.443c-.34.018-.49.034-.806.051.02.054.039.11.06.164.086.218.543.047.79-.092-.013-.029-.03-.09-.044-.123zm1.881 1.309c-.21.072-.434.177-.639.236-.218.063.731-.014.645-.224a.42.42 0 0 0-.006-.012zm-123.41 57.596c-.877 1.308-1.22 2.736-1.174 4.25.798-.445 1.593-.894 2.393-1.336-.543-.772-.947-1.742-1.22-2.914zm-6.479 14.445c2.197 5.423 4.394 10.819 6.743 10.309-.584-4.03-4.009-8.744-4.461-9.975-.755-.134-1.52-.228-2.282-.334zm4.204 15.44c-.141.135-.257.22-.409.376-.03.055-.149.177-.088.164a.486.486 0 0 0 .272-.203c.08-.11.15-.225.225-.338z" style="fill:red;fill-opacity:1;fill-rule:nonzero;stroke:none"/></clipPath></defs><rect width="56.483" height="184.22" x="-270.319" y="611.14" rx="1.031" ry=".989" style="fill:#d7e4e3;fill-opacity:1;stroke:none" transform="scale(-1 1)"/><path stroke-width="30.702" d="M561.23 16.245c-42.977-.007-85.691 25.1-116.08 68.232-30.393 43.132-48.089 103.76-48.094 164.76 0 61.004 17.683 121.64 48.069 164.78 30.386 43.141 73.096 68.261 116.07 68.268 42.977.007 85.691-25.1 116.08-68.232 30.393-43.132 48.089-103.76 48.094-164.76 0-61.004-17.683-121.64-48.069-164.78-30.386-43.141-73.096-68.261-116.07-68.268Z" clip-path="url(#a)" style="fill:none;fill-opacity:1;stroke:#d7e4e3;stroke-opacity:1;stroke-width:30.702;stroke-miterlimit:4;stroke-dasharray:none" transform="matrix(-1 0 0 1 802.913 1.084)"/><g style="fill:#d7e4e3;fill-opacity:1"><path d="M239.88 37.021a141.54 211.74 0 0 1 1.418-.045 141.54 211.74 0 0 1 4.674.422v422.64a141.54 211.74 0 0 1-4.674.422 141.54 211.74 0 0 1-1.418-.13z" opacity=".993" style="fill:#d7e4e3;fill-opacity:1" transform="matrix(.9275 0 0 .93275 18.44 16.126)"/><path d="M381.71 230.48a141.54 211.74 0 0 1 .246 6.092H99.566a141.54 211.74 0 0 1 .254-6.092ZM321.05 304.2h-215.9a141.54 211.74 0 0 1-1.037-4.982 141.54 211.74 0 0 1-.137-1.11h224.86a126.04 124.7 0 0 0-2.447 1.776 126.04 124.7 0 0 0-4.29 3.406 126.04 124.7 0 0 0-1.048.91zM280.01 371.33H125.98a141.54 211.74 0 0 1-1.152-2.2 141.54 211.74 0 0 1-1.573-3.892h158.3a126.04 124.7 0 0 0-1.035 3.822 126.04 124.7 0 0 0-.516 2.27zM370.97 160.69a141.54 211.74 0 0 1 1.832 6.092h-261.34a141.54 211.74 0 0 1 1.143-4.131 141.54 211.74 0 0 1 .607-1.961zM336.39 90.283a141.54 211.74 0 0 1 .197.23 141.54 211.74 0 0 1 3.918 5.862h-195.83a141.54 211.74 0 0 1 2.198-3.155 141.54 211.74 0 0 1 2.222-2.937z" opacity=".993" style="fill:#d7e4e3;fill-opacity:1" transform="matrix(.9275 0 0 .93275 18.44 16.126)"/><path d="M133.18 112.18a141.54 211.74 0 0 1 1.664-2.953 141.54 211.74 0 0 1 4.065-6.62 141.54 211.74 0 0 1 .363-.542v293.63a141.54 211.74 0 0 1-4.121-6.164 141.54 211.74 0 0 1-1.971-3.764zM185.98 54.768a141.54 211.74 0 0 1 4.072-2.6 141.54 211.74 0 0 1 2.02-1.14v395.22a141.54 211.74 0 0 1-6.092-4.102zM344.26 103.36a141.54 211.74 0 0 1 3.66 5.477 141.54 211.74 0 0 1 2.432 4.642v172.9a126.04 124.7 0 0 0-2.145.965 126.04 124.7 0 0 0-3.947 1.99zM289.62 49.947a141.54 211.74 0 0 1 2.894 1.35 141.54 211.74 0 0 1 3.198 2.152v279.57a126.04 124.7 0 0 0-2.225 3.592 126.04 124.7 0 0 0-3.148 5.738 126.04 124.7 0 0 0-.719 1.492z" opacity=".993" style="fill:#d7e4e3;fill-opacity:1" transform="matrix(.9275 0 0 .93275 18.44 16.126)"/></g><g clip-path="url(#b)" color="#000" style="fill:#d7e4e3;fill-opacity:1;stroke:none" transform="matrix(-1.5882 0 0 1.5627 2676.26 -474.817)"><path d="M1609.7 577.26c-9.68 4.578-17.455 12.409-25.831 18.977-7.112 6.702-12.197 15.323-17.998 23.149-12.579 18.734-24.641 38.661-28.905 61.131-.762 1.86.135 5.755-1.125 5.728.31.4.205 2.342-2.947 3.24-7.301.776-4.014-11.381-7.398-16.42-8.251-26.637-22.853-50.942-39.89-72.847-3.992-3.614-13.701-8.23-16.55-8.073 20.808 27.9 38.364 59.082 46.31 93.211 3.349 6.847-.653 18.092 5.982 22.238 7.263 1.303 14.668-.2 21.854-1.356 4.268-5.502.416-14.21 3.484-20.861 7-27.847 23.12-52.275 39.693-75.317 7.355-10.498 16.136-19.933 23.348-30.512.197-.4 1.413-2.443-.027-2.288zm-73.113 107.08c.035-.075-.181-.027 0 0zm-.639.309c-.965 2.154 1.412-.043 0 0zm-.175 2.242c-.49.73.108.442 0 0zm-.237.566c-3.798 2.739.35 1.168 0 0z" style="fill:#d7e4e3;fill-opacity:1;stroke:none;-inkscape-stroke:none"/><path d="M1609.5 574c-.628.058.664-.02 0 0zm-.174.021c-7.593 2.445-13.367 8.646-19.736 13.241-5.803 4.66-11.8 9.195-15.814 15.6-15.307 20.763-30.366 42.619-37.787 67.607-1.84 2.87-.197 13.274-5.312 9.297-7.575-30.081-23.822-57.552-42.798-81.904-8.118-7.022-18.933-9.458-28.834-13.01 21.026 25.655 38.295 54.717 48.978 86.195 3.813 11.39 6.146 23.252 7.085 35.213 3.018 6.73 11.93 4.984 17.888 4.751 4.445-1.21 10.456.287 13.673-3.583 4.214-3.6.228-9.16 1.886-13.784 3.444-23.9 16.102-45.192 28.926-65.188 10.3-15.966 22.516-30.547 34.033-45.607 2.794-2.834 3.248-9.18-2.188-8.827zm-9.799 13.775c-21.03 26.32-41.398 54.103-52.924 86.053-3.258 9.295-5.316 19.296-4.753 29.072-5.845 1.5-12.375 2.211-18.544 1.724-4.442-2.97-1.893-12.137-4.248-17.493-6.638-31.85-22.224-61.135-40.576-87.71 7.759 3.865 11.2 12.494 16.368 19 13.999 21.235 26.428 44.388 30.758 69.713-2.008 5.47 4.85 3.486 5.152 5.881-1.39 3.501 2.79-1.405 2.06 1.554 1.811-3.926 1.736 2.762 3.289-2.356.487-5.066 3.78.094 3.724-2.03-.186-5.696.14-11.196 1.846-16.69 6.52-23.883 20.657-44.796 34.974-64.65 4.155-6.015 8.911-11.527 14.895-15.792 2.612-2.152 5.249-4.273 7.978-6.276zm-68.627 93.375c.137.118-.095.06 0 0zm3.047 3.211c.577.41-.81.751 0 0zm-.195 1.092c.775-.1 2.5 1.23.86.786 1.073-.327-1.296-.58-.86-.786zm-2.057.065c1.314-.012-.495 1.761 0 0zm2.713.011c.129-.024.044.085 0 0zm-.802 1.375c.723.803-2.124.237 0 0zm4.011 3.543c-.227.235-.055.032 0 0z" style="fill:#d7e4e3;fill-opacity:1;stroke:none;-inkscape-stroke:none"/></g><g clip-path="url(#b)" color="#000" style="fill:#d7e4e3;fill-opacity:1;stroke:none" transform="matrix(1.5882 0 0 1.5627 -2191.096 -474.817)"><path d="M1609.7 577.26c-9.68 4.578-17.455 12.409-25.831 18.977-7.112 6.702-12.197 15.323-17.998 23.149-12.579 18.734-24.641 38.661-28.905 61.131-.762 1.86.135 5.755-1.125 5.728.31.4.205 2.342-2.947 3.24-7.301.776-4.014-11.381-7.398-16.42-8.251-26.637-22.853-50.942-39.89-72.847-3.992-3.614-13.701-8.23-16.55-8.073 20.808 27.9 38.364 59.082 46.31 93.211 3.349 6.847-.653 18.092 5.982 22.238 7.263 1.303 14.668-.2 21.854-1.356 4.268-5.502.416-14.21 3.484-20.861 7-27.847 23.12-52.275 39.693-75.317 7.355-10.498 16.136-19.933 23.348-30.512.197-.4 1.413-2.443-.027-2.288zm-73.113 107.08c.035-.075-.181-.027 0 0zm-.639.309c-.965 2.154 1.412-.043 0 0zm-.175 2.242c-.49.73.108.442 0 0zm-.237.566c-3.798 2.739.35 1.168 0 0z" style="fill:#d7e4e3;fill-opacity:1;stroke:none;-inkscape-stroke:none"/><path d="M1609.5 574c-.628.058.664-.02 0 0zm-.174.021c-7.593 2.445-13.367 8.646-19.736 13.241-5.803 4.66-11.8 9.195-15.814 15.6-15.307 20.763-30.366 42.619-37.787 67.607-1.84 2.87-.197 13.274-5.312 9.297-7.575-30.081-23.822-57.552-42.798-81.904-8.118-7.022-18.933-9.458-28.834-13.01 21.026 25.655 38.295 54.717 48.978 86.195 3.813 11.39 6.146 23.252 7.085 35.213 3.018 6.73 11.93 4.984 17.888 4.751 4.445-1.21 10.456.287 13.673-3.583 4.214-3.6.228-9.16 1.886-13.784 3.444-23.9 16.102-45.192 28.926-65.188 10.3-15.966 22.516-30.547 34.033-45.607 2.794-2.834 3.248-9.18-2.188-8.827zm-9.799 13.775c-21.03 26.32-41.398 54.103-52.924 86.053-3.258 9.295-5.316 19.296-4.753 29.072-5.845 1.5-12.375 2.211-18.544 1.724-4.442-2.97-1.893-12.137-4.248-17.493-6.638-31.85-22.224-61.135-40.576-87.71 7.759 3.865 11.2 12.494 16.368 19 13.999 21.235 26.428 44.388 30.758 69.713-2.008 5.47 4.85 3.486 5.152 5.881-1.39 3.501 2.79-1.405 2.06 1.554 1.811-3.926 1.736 2.762 3.289-2.356.487-5.066 3.78.094 3.724-2.03-.186-5.696.14-11.196 1.846-16.69 6.52-23.883 20.657-44.796 34.974-64.65 4.155-6.015 8.911-11.527 14.895-15.792 2.612-2.152 5.249-4.273 7.978-6.276zm-68.627 93.375c.137.118-.095.06 0 0zm3.047 3.211c.577.41-.81.751 0 0zm-.195 1.092c.775-.1 2.5 1.23.86.786 1.073-.327-1.296-.58-.86-.786zm-2.057.065c1.314-.012-.495 1.761 0 0zm2.713.011c.129-.024.044.085 0 0zm-.802 1.375c.723.803-2.124.237 0 0zm4.011 3.543c-.227.235-.055.032 0 0z" style="fill:#d7e4e3;fill-opacity:1;stroke:none;-inkscape-stroke:none"/></g><path fill="none" stroke="#bbb" stroke-width="30.702" d="M561.23 16.245c-42.977-.007-85.691 25.1-116.08 68.232-30.393 43.132-48.089 103.76-48.094 164.76 0 61.004 17.683 121.64 48.069 164.78 30.386 43.141 73.096 68.261 116.07 68.268 42.977.007 85.691-25.1 116.08-68.232 30.393-43.132 48.089-103.76 48.094-164.76 0-61.004-17.683-121.64-48.069-164.78-30.386-43.141-73.096-68.261-116.07-68.268Z" clip-path="url(#c)" transform="matrix(1 0 0 -1 1.968 796.255)"/><rect width="56.483" height="184.22" x="535.099" y="-185.115" rx="1.031" ry=".989" style="fill:#d7e4e3;fill-opacity:1;stroke:none" transform="scale(1 -1)"/><path stroke-width="30.702" d="M561.23 16.245c-42.977-.007-85.691 25.1-116.08 68.232-30.393 43.132-48.089 103.76-48.094 164.76 0 61.004 17.683 121.64 48.069 164.78 30.386 43.141 73.096 68.261 116.07 68.268 42.977.007 85.691-25.1 116.08-68.232 30.393-43.132 48.089-103.76 48.094-164.76 0-61.004-17.683-121.64-48.069-164.78-30.386-43.141-73.096-68.261-116.07-68.268Z" clip-path="url(#a)" style="fill:none;fill-opacity:1;stroke:#d7e4e3;stroke-opacity:1" transform="matrix(1 0 0 -1 1.968 796.255)"/><g style="fill:#d7e4e3;fill-opacity:1"><path d="M239.88 37.021a141.54 211.74 0 0 1 1.418-.045 141.54 211.74 0 0 1 4.674.422v422.64a141.54 211.74 0 0 1-4.674.422 141.54 211.74 0 0 1-1.418-.13z" opacity=".993" style="fill:#d7e4e3;fill-opacity:1" transform="matrix(-.9275 0 0 -.93275 786.978 780.129)"/><path d="M381.71 230.48a141.54 211.74 0 0 1 .246 6.092H99.566a141.54 211.74 0 0 1 .254-6.092ZM321.05 304.2h-215.9a141.54 211.74 0 0 1-1.037-4.982 141.54 211.74 0 0 1-.137-1.11h224.86a126.04 124.7 0 0 0-2.447 1.776 126.04 124.7 0 0 0-4.29 3.406 126.04 124.7 0 0 0-1.048.91zM280.01 371.33H125.98a141.54 211.74 0 0 1-1.152-2.2 141.54 211.74 0 0 1-1.573-3.892h158.3a126.04 124.7 0 0 0-1.035 3.822 126.04 124.7 0 0 0-.516 2.27zM370.97 160.69a141.54 211.74 0 0 1 1.832 6.092h-261.34a141.54 211.74 0 0 1 1.143-4.131 141.54 211.74 0 0 1 .607-1.961zM336.39 90.283a141.54 211.74 0 0 1 .197.23 141.54 211.74 0 0 1 3.918 5.862h-195.83a141.54 211.74 0 0 1 2.198-3.155 141.54 211.74 0 0 1 2.222-2.937z" opacity=".993" style="fill:#d7e4e3;fill-opacity:1" transform="matrix(-.9275 0 0 -.93275 786.978 780.129)"/><path d="M133.18 112.18a141.54 211.74 0 0 1 1.664-2.953 141.54 211.74 0 0 1 4.065-6.62 141.54 211.74 0 0 1 .363-.542v293.63a141.54 211.74 0 0 1-4.121-6.164 141.54 211.74 0 0 1-1.971-3.764zM185.98 54.768a141.54 211.74 0 0 1 4.072-2.6 141.54 211.74 0 0 1 2.02-1.14v395.22a141.54 211.74 0 0 1-6.092-4.102zM344.26 103.36a141.54 211.74 0 0 1 3.66 5.477 141.54 211.74 0 0 1 2.432 4.642v172.9a126.04 124.7 0 0 0-2.145.965 126.04 124.7 0 0 0-3.947 1.99zM289.62 49.947a141.54 211.74 0 0 1 2.894 1.35 141.54 211.74 0 0 1 3.198 2.152v279.57a126.04 124.7 0 0 0-2.225 3.592 126.04 124.7 0 0 0-3.148 5.738 126.04 124.7 0 0 0-.719 1.492z" opacity=".993" style="fill:#d7e4e3;fill-opacity:1" transform="matrix(-.9275 0 0 -.93275 786.978 780.129)"/></g><g clip-path="url(#b)" color="#000" style="fill:#d7e4e3;fill-opacity:1;stroke:none" transform="matrix(1.5882 0 0 -1.5627 -1870.842 1271.071)"><path d="M1609.7 577.26c-9.68 4.578-17.455 12.409-25.831 18.977-7.112 6.702-12.197 15.323-17.998 23.149-12.579 18.734-24.641 38.661-28.905 61.131-.762 1.86.135 5.755-1.125 5.728.31.4.205 2.342-2.947 3.24-7.301.776-4.014-11.381-7.398-16.42-8.251-26.637-22.853-50.942-39.89-72.847-3.992-3.614-13.701-8.23-16.55-8.073 20.808 27.9 38.364 59.082 46.31 93.211 3.349 6.847-.653 18.092 5.982 22.238 7.263 1.303 14.668-.2 21.854-1.356 4.268-5.502.416-14.21 3.484-20.861 7-27.847 23.12-52.275 39.693-75.317 7.355-10.498 16.136-19.933 23.348-30.512.197-.4 1.413-2.443-.027-2.288zm-73.113 107.08c.035-.075-.181-.027 0 0zm-.639.309c-.965 2.154 1.412-.043 0 0zm-.175 2.242c-.49.73.108.442 0 0zm-.237.566c-3.798 2.739.35 1.168 0 0z" style="fill:#d7e4e3;fill-opacity:1;stroke:none;-inkscape-stroke:none"/><path d="M1609.5 574c-.628.058.664-.02 0 0zm-.174.021c-7.593 2.445-13.367 8.646-19.736 13.241-5.803 4.66-11.8 9.195-15.814 15.6-15.307 20.763-30.366 42.619-37.787 67.607-1.84 2.87-.197 13.274-5.312 9.297-7.575-30.081-23.822-57.552-42.798-81.904-8.118-7.022-18.933-9.458-28.834-13.01 21.026 25.655 38.295 54.717 48.978 86.195 3.813 11.39 6.146 23.252 7.085 35.213 3.018 6.73 11.93 4.984 17.888 4.751 4.445-1.21 10.456.287 13.673-3.583 4.214-3.6.228-9.16 1.886-13.784 3.444-23.9 16.102-45.192 28.926-65.188 10.3-15.966 22.516-30.547 34.033-45.607 2.794-2.834 3.248-9.18-2.188-8.827zm-9.799 13.775c-21.03 26.32-41.398 54.103-52.924 86.053-3.258 9.295-5.316 19.296-4.753 29.072-5.845 1.5-12.375 2.211-18.544 1.724-4.442-2.97-1.893-12.137-4.248-17.493-6.638-31.85-22.224-61.135-40.576-87.71 7.759 3.865 11.2 12.494 16.368 19 13.999 21.235 26.428 44.388 30.758 69.713-2.008 5.47 4.85 3.486 5.152 5.881-1.39 3.501 2.79-1.405 2.06 1.554 1.811-3.926 1.736 2.762 3.289-2.356.487-5.066 3.78.094 3.724-2.03-.186-5.696.14-11.196 1.846-16.69 6.52-23.883 20.657-44.796 34.974-64.65 4.155-6.015 8.911-11.527 14.895-15.792 2.612-2.152 5.249-4.273 7.978-6.276zm-68.627 93.375c.137.118-.095.06 0 0zm3.047 3.211c.577.41-.81.751 0 0zm-.195 1.092c.775-.1 2.5 1.23.86.786 1.073-.327-1.296-.58-.86-.786zm-2.057.065c1.314-.012-.495 1.761 0 0zm2.713.011c.129-.024.044.085 0 0zm-.802 1.375c.723.803-2.124.237 0 0zm4.011 3.543c-.227.235-.055.032 0 0z" style="fill:#d7e4e3;fill-opacity:1;stroke:none;-inkscape-stroke:none"/></g><g clip-path="url(#b)" color="#000" style="fill:#d7e4e3;fill-opacity:1;stroke:none" transform="matrix(-1.5882 0 0 -1.5627 2996.515 1271.071)"><path d="M1609.7 577.26c-9.68 4.578-17.455 12.409-25.831 18.977-7.112 6.702-12.197 15.323-17.998 23.149-12.579 18.734-24.641 38.661-28.905 61.131-.762 1.86.135 5.755-1.125 5.728.31.4.205 2.342-2.947 3.24-7.301.776-4.014-11.381-7.398-16.42-8.251-26.637-22.853-50.942-39.89-72.847-3.992-3.614-13.701-8.23-16.55-8.073 20.808 27.9 38.364 59.082 46.31 93.211 3.349 6.847-.653 18.092 5.982 22.238 7.263 1.303 14.668-.2 21.854-1.356 4.268-5.502.416-14.21 3.484-20.861 7-27.847 23.12-52.275 39.693-75.317 7.355-10.498 16.136-19.933 23.348-30.512.197-.4 1.413-2.443-.027-2.288zm-73.113 107.08c.035-.075-.181-.027 0 0zm-.639.309c-.965 2.154 1.412-.043 0 0zm-.175 2.242c-.49.73.108.442 0 0zm-.237.566c-3.798 2.739.35 1.168 0 0z" style="fill:#d7e4e3;fill-opacity:1;stroke:none;-inkscape-stroke:none"/><path d="M1609.5 574c-.628.058.664-.02 0 0zm-.174.021c-7.593 2.445-13.367 8.646-19.736 13.241-5.803 4.66-11.8 9.195-15.814 15.6-15.307 20.763-30.366 42.619-37.787 67.607-1.84 2.87-.197 13.274-5.312 9.297-7.575-30.081-23.822-57.552-42.798-81.904-8.118-7.022-18.933-9.458-28.834-13.01 21.026 25.655 38.295 54.717 48.978 86.195 3.813 11.39 6.146 23.252 7.085 35.213 3.018 6.73 11.93 4.984 17.888 4.751 4.445-1.21 10.456.287 13.673-3.583 4.214-3.6.228-9.16 1.886-13.784 3.444-23.9 16.102-45.192 28.926-65.188 10.3-15.966 22.516-30.547 34.033-45.607 2.794-2.834 3.248-9.18-2.188-8.827zm-9.799 13.775c-21.03 26.32-41.398 54.103-52.924 86.053-3.258 9.295-5.316 19.296-4.753 29.072-5.845 1.5-12.375 2.211-18.544 1.724-4.442-2.97-1.893-12.137-4.248-17.493-6.638-31.85-22.224-61.135-40.576-87.71 7.759 3.865 11.2 12.494 16.368 19 13.999 21.235 26.428 44.388 30.758 69.713-2.008 5.47 4.85 3.486 5.152 5.881-1.39 3.501 2.79-1.405 2.06 1.554 1.811-3.926 1.736 2.762 3.289-2.356.487-5.066 3.78.094 3.724-2.03-.186-5.696.14-11.196 1.846-16.69 6.52-23.883 20.657-44.796 34.974-64.65 4.155-6.015 8.911-11.527 14.895-15.792 2.612-2.152 5.249-4.273 7.978-6.276zm-68.627 93.375c.137.118-.095.06 0 0zm3.047 3.211c.577.41-.81.751 0 0zm-.195 1.092c.775-.1 2.5 1.23.86.786 1.073-.327-1.296-.58-.86-.786zm-2.057.065c1.314-.012-.495 1.761 0 0zm2.713.011c.129-.024.044.085 0 0zm-.802 1.375c.723.803-2.124.237 0 0zm4.011 3.543c-.227.235-.055.032 0 0z" style="fill:#d7e4e3;fill-opacity:1;stroke:none;-inkscape-stroke:none"/></g><path fill="none" stroke-width="23.456" d="M401.17 507.49c28.198.01 56.226-11.587 76.172-31.519 19.946-19.931 31.564-47.951 31.575-76.149.01-28.198-11.587-56.226-31.519-76.172-19.931-19.946-47.951-31.564-76.149-31.575-28.198-.01-56.226 11.587-76.172 31.519-19.946 19.931-31.564 47.951-31.575 76.149-.01 28.198 11.587 56.226 31.519 76.172 19.931 19.946 47.951 31.564 76.149 31.575z" style="stroke:#f5ff80;stroke-opacity:1"/><g clip-path="url(#d)"><path d="M405.215 222.484 79.1 226.707a319.714 319.714 0 0 0-.912 23.843c.005 61 17.7 121.63 48.094 164.762 30.389 43.132 73.103 68.238 116.08 68.23 42.974-.006 85.684-25.126 116.07-68.267 30.386-43.14 48.07-103.775 48.07-164.78 0-9.369-.47-18.72-1.287-28.011z" clip-path="url(#e)" style="fill:none;fill-opacity:1;stroke:#f5ff80;stroke-width:30.75049167;stroke-miterlimit:4;stroke-dasharray:none;stroke-opacity:1" transform="matrix(1.01642 0 0 1 -6.677 0)"/><g clip-path="url(#f)" color="#000" style="fill:#f5ff80;fill-opacity:1;stroke:none" transform="matrix(-1.5882 0 0 1.5627 2676.26 -474.817)"><path d="M1609.7 577.26c-9.68 4.578-17.455 12.409-25.831 18.977-7.112 6.702-12.197 15.323-17.998 23.149-12.579 18.734-24.641 38.661-28.905 61.131-.762 1.86.135 5.755-1.125 5.728.31.4.205 2.342-2.947 3.24-7.301.776-4.014-11.381-7.398-16.42-8.251-26.637-22.853-50.942-39.89-72.847-3.992-3.614-13.701-8.23-16.55-8.073 20.808 27.9 38.364 59.082 46.31 93.211 3.349 6.847-.653 18.092 5.982 22.238 7.263 1.303 14.668-.2 21.854-1.356 4.268-5.502.416-14.21 3.484-20.861 7-27.847 23.12-52.275 39.693-75.317 7.355-10.498 16.136-19.933 23.348-30.512.197-.4 1.413-2.443-.027-2.288zm-73.113 107.08c.035-.075-.181-.027 0 0zm-.639.309c-.965 2.154 1.412-.043 0 0zm-.175 2.242c-.49.73.108.442 0 0zm-.237.566c-3.798 2.739.35 1.168 0 0z" style="fill:#f5ff80;fill-opacity:1;stroke:none;-inkscape-stroke:none"/><path d="M1609.5 574c-.628.058.664-.02 0 0zm-.174.021c-7.593 2.445-13.367 8.646-19.736 13.241-5.803 4.66-11.8 9.195-15.814 15.6-15.307 20.763-30.366 42.619-37.787 67.607-1.84 2.87-.197 13.274-5.312 9.297-7.575-30.081-23.822-57.552-42.798-81.904-8.118-7.022-18.933-9.458-28.834-13.01 21.026 25.655 38.295 54.717 48.978 86.195 3.813 11.39 6.146 23.252 7.085 35.213 3.018 6.73 11.93 4.984 17.888 4.751 4.445-1.21 10.456.287 13.673-3.583 4.214-3.6.228-9.16 1.886-13.784 3.444-23.9 16.102-45.192 28.926-65.188 10.3-15.966 22.516-30.547 34.033-45.607 2.794-2.834 3.248-9.18-2.188-8.827zm-9.799 13.775c-21.03 26.32-41.398 54.103-52.924 86.053-3.258 9.295-5.316 19.296-4.753 29.072-5.845 1.5-12.375 2.211-18.544 1.724-4.442-2.97-1.893-12.137-4.248-17.493-6.638-31.85-22.224-61.135-40.576-87.71 7.759 3.865 11.2 12.494 16.368 19 13.999 21.235 26.428 44.388 30.758 69.713-2.008 5.47 4.85 3.486 5.152 5.881-1.39 3.501 2.79-1.405 2.06 1.554 1.811-3.926 1.736 2.762 3.289-2.356.487-5.066 3.78.094 3.724-2.03-.186-5.696.14-11.196 1.846-16.69 6.52-23.883 20.657-44.796 34.974-64.65 4.155-6.015 8.911-11.527 14.895-15.792 2.612-2.152 5.249-4.273 7.978-6.276zm-68.627 93.375c.137.118-.095.06 0 0zm3.047 3.211c.577.41-.81.751 0 0zm-.195 1.092c.775-.1 2.5 1.23.86.786 1.073-.327-1.296-.58-.86-.786zm-2.057.065c1.314-.012-.495 1.761 0 0zm2.713.011c.129-.024.044.085 0 0zm-.802 1.375c.723.803-2.124.237 0 0zm4.011 3.543c-.227.235-.055.032 0 0z" style="fill:#f5ff80;fill-opacity:1;stroke:none;-inkscape-stroke:none"/></g><g clip-path="url(#f)" color="#000" style="fill:#f5ff80;fill-opacity:1;stroke:none" transform="matrix(1.5882 0 0 1.5627 -2191.096 -474.817)"><path d="M1609.7 577.26c-9.68 4.578-17.455 12.409-25.831 18.977-7.112 6.702-12.197 15.323-17.998 23.149-12.579 18.734-24.641 38.661-28.905 61.131-.762 1.86.135 5.755-1.125 5.728.31.4.205 2.342-2.947 3.24-7.301.776-4.014-11.381-7.398-16.42-8.251-26.637-22.853-50.942-39.89-72.847-3.992-3.614-13.701-8.23-16.55-8.073 20.808 27.9 38.364 59.082 46.31 93.211 3.349 6.847-.653 18.092 5.982 22.238 7.263 1.303 14.668-.2 21.854-1.356 4.268-5.502.416-14.21 3.484-20.861 7-27.847 23.12-52.275 39.693-75.317 7.355-10.498 16.136-19.933 23.348-30.512.197-.4 1.413-2.443-.027-2.288zm-73.113 107.08c.035-.075-.181-.027 0 0zm-.639.309c-.965 2.154 1.412-.043 0 0zm-.175 2.242c-.49.73.108.442 0 0zm-.237.566c-3.798 2.739.35 1.168 0 0z" style="fill:#f5ff80;fill-opacity:1;stroke:none;-inkscape-stroke:none"/><path d="M1609.5 574c-.628.058.664-.02 0 0zm-.174.021c-7.593 2.445-13.367 8.646-19.736 13.241-5.803 4.66-11.8 9.195-15.814 15.6-15.307 20.763-30.366 42.619-37.787 67.607-1.84 2.87-.197 13.274-5.312 9.297-7.575-30.081-23.822-57.552-42.798-81.904-8.118-7.022-18.933-9.458-28.834-13.01 21.026 25.655 38.295 54.717 48.978 86.195 3.813 11.39 6.146 23.252 7.085 35.213 3.018 6.73 11.93 4.984 17.888 4.751 4.445-1.21 10.456.287 13.673-3.583 4.214-3.6.228-9.16 1.886-13.784 3.444-23.9 16.102-45.192 28.926-65.188 10.3-15.966 22.516-30.547 34.033-45.607 2.794-2.834 3.248-9.18-2.188-8.827zm-9.799 13.775c-21.03 26.32-41.398 54.103-52.924 86.053-3.258 9.295-5.316 19.296-4.753 29.072-5.845 1.5-12.375 2.211-18.544 1.724-4.442-2.97-1.893-12.137-4.248-17.493-6.638-31.85-22.224-61.135-40.576-87.71 7.759 3.865 11.2 12.494 16.368 19 13.999 21.235 26.428 44.388 30.758 69.713-2.008 5.47 4.85 3.486 5.152 5.881-1.39 3.501 2.79-1.405 2.06 1.554 1.811-3.926 1.736 2.762 3.289-2.356.487-5.066 3.78.094 3.724-2.03-.186-5.696.14-11.196 1.846-16.69 6.52-23.883 20.657-44.796 34.974-64.65 4.155-6.015 8.911-11.527 14.895-15.792 2.612-2.152 5.249-4.273 7.978-6.276zm-68.627 93.375c.137.118-.095.06 0 0zm3.047 3.211c.577.41-.81.751 0 0zm-.195 1.092c.775-.1 2.5 1.23.86.786 1.073-.327-1.296-.58-.86-.786zm-2.057.065c1.314-.012-.495 1.761 0 0zm2.713.011c.129-.024.044.085 0 0zm-.802 1.375c.723.803-2.124.237 0 0zm4.011 3.543c-.227.235-.055.032 0 0z" style="fill:#f5ff80;fill-opacity:1;stroke:none;-inkscape-stroke:none"/></g></g><g clip-path="url(#d)" transform="rotate(180 402.71 398.127)"><path d="M405.215 222.484 79.1 226.707a319.714 319.714 0 0 0-.912 23.843c.005 61 17.7 121.63 48.094 164.762 30.389 43.132 73.103 68.238 116.08 68.23 42.974-.006 85.684-25.126 116.07-68.267 30.386-43.14 48.07-103.775 48.07-164.78 0-9.369-.47-18.72-1.287-28.011z" clip-path="url(#e)" style="fill:none;fill-opacity:1;stroke:#f5ff80;stroke-width:30.7505;stroke-miterlimit:4;stroke-dasharray:none;stroke-opacity:1" transform="matrix(1.01642 0 0 1 -6.677 0)"/><g clip-path="url(#f)" color="#000" style="fill:#f5ff80;fill-opacity:1;stroke:none" transform="matrix(-1.5882 0 0 1.5627 2676.26 -474.817)"><path d="M1609.7 577.26c-9.68 4.578-17.455 12.409-25.831 18.977-7.112 6.702-12.197 15.323-17.998 23.149-12.579 18.734-24.641 38.661-28.905 61.131-.762 1.86.135 5.755-1.125 5.728.31.4.205 2.342-2.947 3.24-7.301.776-4.014-11.381-7.398-16.42-8.251-26.637-22.853-50.942-39.89-72.847-3.992-3.614-13.701-8.23-16.55-8.073 20.808 27.9 38.364 59.082 46.31 93.211 3.349 6.847-.653 18.092 5.982 22.238 7.263 1.303 14.668-.2 21.854-1.356 4.268-5.502.416-14.21 3.484-20.861 7-27.847 23.12-52.275 39.693-75.317 7.355-10.498 16.136-19.933 23.348-30.512.197-.4 1.413-2.443-.027-2.288zm-73.113 107.08c.035-.075-.181-.027 0 0zm-.639.309c-.965 2.154 1.412-.043 0 0zm-.175 2.242c-.49.73.108.442 0 0zm-.237.566c-3.798 2.739.35 1.168 0 0z" style="fill:#f5ff80;fill-opacity:1;stroke:none;-inkscape-stroke:none"/><path d="M1609.5 574c-.628.058.664-.02 0 0zm-.174.021c-7.593 2.445-13.367 8.646-19.736 13.241-5.803 4.66-11.8 9.195-15.814 15.6-15.307 20.763-30.366 42.619-37.787 67.607-1.84 2.87-.197 13.274-5.312 9.297-7.575-30.081-23.822-57.552-42.798-81.904-8.118-7.022-18.933-9.458-28.834-13.01 21.026 25.655 38.295 54.717 48.978 86.195 3.813 11.39 6.146 23.252 7.085 35.213 3.018 6.73 11.93 4.984 17.888 4.751 4.445-1.21 10.456.287 13.673-3.583 4.214-3.6.228-9.16 1.886-13.784 3.444-23.9 16.102-45.192 28.926-65.188 10.3-15.966 22.516-30.547 34.033-45.607 2.794-2.834 3.248-9.18-2.188-8.827zm-9.799 13.775c-21.03 26.32-41.398 54.103-52.924 86.053-3.258 9.295-5.316 19.296-4.753 29.072-5.845 1.5-12.375 2.211-18.544 1.724-4.442-2.97-1.893-12.137-4.248-17.493-6.638-31.85-22.224-61.135-40.576-87.71 7.759 3.865 11.2 12.494 16.368 19 13.999 21.235 26.428 44.388 30.758 69.713-2.008 5.47 4.85 3.486 5.152 5.881-1.39 3.501 2.79-1.405 2.06 1.554 1.811-3.926 1.736 2.762 3.289-2.356.487-5.066 3.78.094 3.724-2.03-.186-5.696.14-11.196 1.846-16.69 6.52-23.883 20.657-44.796 34.974-64.65 4.155-6.015 8.911-11.527 14.895-15.792 2.612-2.152 5.249-4.273 7.978-6.276zm-68.627 93.375c.137.118-.095.06 0 0zm3.047 3.211c.577.41-.81.751 0 0zm-.195 1.092c.775-.1 2.5 1.23.86.786 1.073-.327-1.296-.58-.86-.786zm-2.057.065c1.314-.012-.495 1.761 0 0zm2.713.011c.129-.024.044.085 0 0zm-.802 1.375c.723.803-2.124.237 0 0zm4.011 3.543c-.227.235-.055.032 0 0z" style="fill:#f5ff80;fill-opacity:1;stroke:none;-inkscape-stroke:none"/></g><g clip-path="url(#f)" color="#000" style="fill:#f5ff80;fill-opacity:1;stroke:none" transform="matrix(1.5882 0 0 1.5627 -2191.096 -474.817)"><path d="M1609.7 577.26c-9.68 4.578-17.455 12.409-25.831 18.977-7.112 6.702-12.197 15.323-17.998 23.149-12.579 18.734-24.641 38.661-28.905 61.131-.762 1.86.135 5.755-1.125 5.728.31.4.205 2.342-2.947 3.24-7.301.776-4.014-11.381-7.398-16.42-8.251-26.637-22.853-50.942-39.89-72.847-3.992-3.614-13.701-8.23-16.55-8.073 20.808 27.9 38.364 59.082 46.31 93.211 3.349 6.847-.653 18.092 5.982 22.238 7.263 1.303 14.668-.2 21.854-1.356 4.268-5.502.416-14.21 3.484-20.861 7-27.847 23.12-52.275 39.693-75.317 7.355-10.498 16.136-19.933 23.348-30.512.197-.4 1.413-2.443-.027-2.288zm-73.113 107.08c.035-.075-.181-.027 0 0zm-.639.309c-.965 2.154 1.412-.043 0 0zm-.175 2.242c-.49.73.108.442 0 0zm-.237.566c-3.798 2.739.35 1.168 0 0z" style="fill:#f5ff80;fill-opacity:1;stroke:none;-inkscape-stroke:none"/><path d="M1609.5 574c-.628.058.664-.02 0 0zm-.174.021c-7.593 2.445-13.367 8.646-19.736 13.241-5.803 4.66-11.8 9.195-15.814 15.6-15.307 20.763-30.366 42.619-37.787 67.607-1.84 2.87-.197 13.274-5.312 9.297-7.575-30.081-23.822-57.552-42.798-81.904-8.118-7.022-18.933-9.458-28.834-13.01 21.026 25.655 38.295 54.717 48.978 86.195 3.813 11.39 6.146 23.252 7.085 35.213 3.018 6.73 11.93 4.984 17.888 4.751 4.445-1.21 10.456.287 13.673-3.583 4.214-3.6.228-9.16 1.886-13.784 3.444-23.9 16.102-45.192 28.926-65.188 10.3-15.966 22.516-30.547 34.033-45.607 2.794-2.834 3.248-9.18-2.188-8.827zm-9.799 13.775c-21.03 26.32-41.398 54.103-52.924 86.053-3.258 9.295-5.316 19.296-4.753 29.072-5.845 1.5-12.375 2.211-18.544 1.724-4.442-2.97-1.893-12.137-4.248-17.493-6.638-31.85-22.224-61.135-40.576-87.71 7.759 3.865 11.2 12.494 16.368 19 13.999 21.235 26.428 44.388 30.758 69.713-2.008 5.47 4.85 3.486 5.152 5.881-1.39 3.501 2.79-1.405 2.06 1.554 1.811-3.926 1.736 2.762 3.289-2.356.487-5.066 3.78.094 3.724-2.03-.186-5.696.14-11.196 1.846-16.69 6.52-23.883 20.657-44.796 34.974-64.65 4.155-6.015 8.911-11.527 14.895-15.792 2.612-2.152 5.249-4.273 7.978-6.276zm-68.627 93.375c.137.118-.095.06 0 0zm3.047 3.211c.577.41-.81.751 0 0zm-.195 1.092c.775-.1 2.5 1.23.86.786 1.073-.327-1.296-.58-.86-.786zm-2.057.065c1.314-.012-.495 1.761 0 0zm2.713.011c.129-.024.044.085 0 0zm-.802 1.375c.723.803-2.124.237 0 0zm4.011 3.543c-.227.235-.055.032 0 0z" style="fill:#f5ff80;fill-opacity:1;stroke:none;-inkscape-stroke:none"/></g></g></svg>