<svg xmlns="http://www.w3.org/2000/svg" width="800" height="800"><defs><clipPath id="b" clipPathUnits="userSpaceOnUse"><path d="M1459.072 573.984v137.381h76.442c.028-.261.05-.527.08-.781 0 .223-.012.464.01.625.014.122.037-.245.027-.367-.01-.1-.023-.2-.033-.299v-.018c.1-.847.175-1.396-.012-.209v.092c-.037-.354-.077-.708-.117-1.062-.081-.719-.162-1.438-.245-2.157-.065-.563-.134-1.126-.2-1.689-.124-1.585-.285-3.146-.23-4.732v-2.223c.001-1.342.01-2.684 0-4.025 0-.658-.035-3.521.01-4.266-.074-1.176-.101-2.291-.01-3.3-.043-.278-.028-.129-.093-.571-.537-3.647-.946-7.325-1.094-11.01v-1.021c-.096-1.198-.18-2.608-.037-1.72.038-.59.077-1.183.113-1.775-.01.108-.019.261-.019.196 0-.132.041-.526.033-.395 0 .067-.01.133-.014.2.01-.068 0-.084.014-.124.065-.276.123.561.25.815.097.193-.088-.423-.13-.635-.618-2.934-1.888-5.74-1.74-8.818v-.393a15.383 15.383 0 0 1-.01-1.844c-.136-.5-.271-1.001-.4-1.504-.19-.748-.285-1.52-.52-2.255-.305-.948-.77-1.863-1.141-2.786-.136-2.82.13-5.69-.407-8.462-.053-.275-.103-.275-.152-.131-.05.377-.093.652-.135.869-.1.919-.186 2.23-.242 2.89v.147l.248 1.893c.086.348.178.693.248 1.058.044.23-.131-.45-.197-.674l-.051-.384c-.153-.616-.279-1.232-.248-1.893-.07-.525-.138-1.05-.207-1.576 0-.049.01-.27-.01-.739-.017-.863-.03-1.452.035-2.17-.013-.336-.032-.7-.04-.964-.175-4.25-.4-8.5-.495-12.752.01-1.204-.021-2.408.01-3.612.01-.136.01-.273.016-.41-.658-4.079-.92-8.234-2.125-12.213l1.468-.367c-.337-2.233.06-3.527 1.414-4.314a11.472 11.472 0 0 1-.125-2.143c12.871-.32 8.987-.218 12.364-.295v-.008l-1.364-.03c.48-.009.884-.01 1.344-.017v-.004c-8.93-.15-6.515-.095-1.346.02-3.924.063-8.017.127-10.996.13-.11.001 0-.22 0-.331v-3.608h10.645c-.216-.443-.251-.55-.55-1.17-11.86-10.862-6.95-23.31 4.032-23.273 3.881.014 8.518 1.587 13.436 5.34.679.518 1.42.964 2.037 1.555 1.032.988 2.548 2.545 4 4.039-2.35-9.076 2.422-15.321 9.309-15.29 4.108.02 8.967 2.28 13.51 7.499l6.84-7.94zm128.836 10.45c-.039-.035-.09.175-.146.521.078.109.148.22.224.328-.01-.173-.01-.346-.022-.52-.015-.205-.034-.31-.057-.33zm23.375 9.119c-.012 0-.023.003-.035.004.028-.14-.097.616.035-.004zm1.801.556c.096.583.222 1.338.512 2.97.029.193.047.391.07.587v-3.37c-.194-.062-.384-.12-.582-.187zm-20.098 23.133c-.661.786-1.283 1.598-1.752 2.504.021.16.06.316.076.477.43-.205 1.314-.972 2.122-1.787-.147-.399-.296-.797-.446-1.194zm-7.279 2.188c.646 1.803 1.285 3.61 1.904 5.424a344.962 344.962 0 0 1 3.13 9.68c.13.422.278.842.425 1.263-.014-.133-.047-.247-.043-.399 0-.154.013-.308.014-.462a7.378 7.378 0 0 0-.41-2.561c-1.446-5.198.301 1-1.262-4.264-.045-.15-1.195-3.865-1.14-4.572.022-.298.088-.592.148-.887-.9-.988-1.83-2.091-2.766-3.222zm5.57 5.94c.194.685.388 1.371.592 2.054 1.443 4.824-.124-.705 1.266 4.281.35 1.07.51 2.13.5 3.248 0 .17-.012.34-.012.51-.046 1.824-1.416 2.26-2.108 1.375.238.742.436 1.491.496 2.264.2 2.556-.21 5.123-.314 7.685-1.046.052-2.091.114-3.137.182-.348.8-.727 1.59-1.025 2.402-1.816 4.948-3.43 6.08-4.928 5.068.01 4.584.01 9.168.01 13.752v19.28h-14.879c0 .453 0 .906.01 1.36.021.757.137 1.51.147 2.269.018 1.354 0 2.71 0 4.064.018 2.352-.298 4.691-.383 7.037-.053 1.468.023 2.952.061 4.42.046 1.58.038 3.162.027 4.744h46.068v-82.974l-18.92-.051c0-.611 0-1.223-.01-1.834-.957.399-2.139-.099-3.459-1.137zm-62.812 1.337v.006-.006zm0 .006v.01c.365 1.112 1.497 4.435 1.129 3.324-.37-1.113-.752-2.223-1.13-3.334zm5.027 27.488c-.147.179-.82 2.174-1.04 3.002-.133.495-.18 1.01-.206 1.524.445-1.426.963-2.835 1.248-4.3v-.226zm-1.158 6.662c0 .026 0 .051.01.077.037.264.296 1.026.23.767-.072-.283-.156-.563-.238-.844z" style="fill:red;fill-opacity:1;fill-rule:nonzero;stroke:none"/></clipPath><clipPath id="a" clipPathUnits="userSpaceOnUse"><path d="M381.697.895v496.742H740.72V.895ZM509.891 52.85l.006.01-.133.095-.168.123-.172.127c-.058.042-.117.084-.174.127l-.174.133c-.06.046-.118.091-.177.139l-.17.138a4.32 4.32 0 0 1-.327.242l-.12.08a.802.802 0 0 0-.075.06c-.02.016-.037.034-.056.052l-.05.045a.94.94 0 0 0-.036.037c-.008.009-.019.017-.028.025v.002l.006.008-.045.03-.091.058-.084.055-.08.05-.073.05c-.022.014-.046.027-.068.042l-.065.043a3.402 3.402 0 0 1-.109.072l-.055.038c-.018.013-.038.025-.056.039l-.057.04-.058.042-.059.04-.057.042-.052.039c-.019.013-.038.028-.057.04l-.059.042-.06.045c-.021.015-.042.033-.063.049l-.06.046c-.018.015-.036.028-.055.041l-.05.038-.053.03-.053.03-.05.03-.052.027-.052.029-.053.03-.057.029-.06.03-.059.034-.06.033-.063.035-.064.036-.06.035c-.02.01-.039.022-.057.033l-.053.031a1.84 1.84 0 0 0-.049.031l-.049.032-.048.03c-.016.01-.03.022-.045.032l-.045.03-.043.029a1.278 1.278 0 0 0-.08.058l-.04.03-.039.03-.039.032-.04.033-.044.034-.043.033-.043.035-.043.031-.045.033-.046.032a7.459 7.459 0 0 1-.047.033l-.05.033-.046.033c-.016.011-.033.02-.049.032l-.049.033-.047.031-.044.03-.045.029-.041.027-.043.03c-.015.009-.03.02-.045.028l-.047.03-.049.031-.05.033-.052.035-.052.036a4.14 4.14 0 0 1-.057.037l-.053.035-.054.037c-.018.012-.036.021-.053.033a7.767 7.767 0 0 0-.05.035l-.05.034-.046.03-.043.03-.043.03a3.43 3.43 0 0 0-.08.055l-.036.022a.356.356 0 0 1-.033.02l-.031.018-.033.017-.032.016-.033.017-.033.02-.035.017-.031.016-.028.014-.03.015-.032.018-.031.02c-.012.006-.022.014-.033.021l-.038.023-.037.026c-.013.01-.027.018-.04.027l-.042.03-.045.033-.046.035-.05.039a4.373 4.373 0 0 1-.052.039l-.059.043a6.068 6.068 0 0 0-.119.088 3.822 3.822 0 0 1-.054.039l-.053.037-.049.033-.053.035-.05.036c-.017.01-.033.021-.05.033l-.05.035c-.019.013-.038.028-.057.04l-.058.044c-.022.016-.045.03-.067.047-.023.018-.046.037-.07.054l-.076.059a10.17 10.17 0 0 0-.152.117 8.697 8.697 0 0 1-.07.053l-.063.049-.057.04c-.016.013-.032.025-.049.036l-.044.03a1.036 1.036 0 0 1-.04.023l-.029.017-.03.018-.03.017-.03.018-.029.02-.03.02-.03.019-.032.02-.035.02a.573.573 0 0 0-.031.022l-.03.024-.029.021-.029.021-.033.024-.03.025c-.01.009-.022.016-.033.024l-.03.023-.034.026-.03.021-.027.023c-.009.008-.018.013-.027.02l-.027.022-.03.023-.029.023-.031.024-.031.023-.028.022-.023.017-.023.018-.024.017-.023.018-.026.018-.023.017-.027.02c-.01.006-.017.013-.026.02l-.025.02-.026.02-.025.02-.027.02a2.692 2.692 0 0 1-.057.038l-.03.02-.03.021-.03.018-.027.018-.027.017-.03.02-.03.021-.03.02-.031.021c-.01.007-.019.011-.028.018l-.027.02-.027.019-.026.017-.027.022-.026.021-.029.024-.03.023-.028.026-.028.021-.027.022c-.01.006-.018.012-.027.02l-.028.02-.027.022-.027.022-.03.023-.03.023-.034.026-.031.023-.035.028-.036.025-.035.025-.035.026a1.975 1.975 0 0 1-.063.043l-.027.021-.025.022-.028.021-.027.024-.03.023-.029.025-.029.026-.03.023-.028.024-.03.023-.029.022-.031.023c-.01.007-.021.012-.031.02l-.032.021-.029.022-.03.02-.027.019-.029.02-.03.02c-.008.008-.02.015-.028.022l-.03.022-.029.021-.027.022c-.01.006-.019.014-.028.021l-.027.022c-.009.006-.018.012-.027.02a4.618 4.618 0 0 1-.055.038l-.027.02-.028.02c-.009.005-.018.01-.027.017l-.026.017-.023.016-.021.016-.024.017-.023.016-.022.015-.023.014a1.358 1.358 0 0 0-.02.014l-.021.017c-.007.006-.017.01-.024.016l-.019.016-.02.013a.436.436 0 0 1-.019.014l-.018.012-.02.01-.017.01-.02.01-.017.009-.02.01-.017.007-.02.008a.45.45 0 0 0-.017.008l-.018.008a1.351 1.351 0 0 1-.017.008l-.018.007-.017.008-.018.008-.016.008-.017.006-.004-.008.017-.008.018-.008.016-.007.017-.008.018-.008.017-.008.018-.008.018-.007.02-.008a.45.45 0 0 0 .017-.008l.02-.01.017-.008.017-.01.02-.01.017-.01.02-.013a.426.426 0 0 0 .037-.025l.022-.018.021-.015.022-.016.021-.014.022-.015.021-.016.023-.015.024-.016.023-.016.024-.017.025-.018.025-.017.028-.018.027-.02.03-.02.025-.019c.009-.006.02-.012.03-.02.008-.006.015-.014.024-.02l.028-.022.03-.022.027-.021.029-.024.03-.019.028-.022.03-.021.03-.02.026-.02.032-.019.029-.021c.01-.007.023-.014.033-.022l.03-.021.029-.023c.01-.008.021-.014.03-.022l.028-.023.03-.024.029-.025.03-.024.028-.025.028-.023.027-.022.025-.021.028-.022.029-.02.033-.023.037-.025.035-.026.036-.027.033-.025.033-.026.031-.023.031-.024.03-.023.027-.022c.01-.006.018-.014.027-.021l.028-.022.027-.021c.01-.007.018-.012.027-.02l.028-.023.03-.023.028-.024.03-.023.027-.022c.009-.007.016-.015.025-.021l.026-.02.027-.017.027-.02.028-.02.031-.019.031-.021.03-.02.029-.02.03-.017.026-.018.03-.017.03-.022.028-.021.03-.02.027-.02c.009-.006.018-.01.027-.017.01-.006.017-.013.026-.02l.025-.02.026-.02.027-.02.025-.02c.008-.006.016-.01.024-.017l.025-.018.023-.017.026-.018c.008-.005.013-.012.021-.017l.024-.02.027-.02.031-.023.031-.023.03-.024.03-.023.026-.022c.01-.007.019-.012.028-.02.009-.006.018-.015.027-.023l.03-.021.033-.026.03-.023.034-.025.031-.024.031-.023.03-.022.029-.023.03-.022.032-.021.034-.022.033-.021.031-.02.03-.02.029-.017.029-.017.03-.02.029-.017.03-.018c.014-.007.025-.016.038-.023l.045-.028c.016-.01.032-.023.049-.035l.056-.04c.021-.017.041-.034.063-.05l.07-.052a6.1 6.1 0 0 0 .152-.118l.078-.06.07-.053.065-.049.06-.043.057-.039.051-.035.049-.035.05-.033.053-.035.05-.036.052-.035.055-.039c.02-.014.038-.03.058-.045l.06-.045.057-.04.055-.04c.017-.012.032-.026.049-.039l.047-.035.045-.033.04-.03.042-.029.039-.025.035-.022.033-.021.033-.02.032-.017.029-.016.03-.016.03-.015a3.48 3.48 0 0 0 .034-.018l.033-.017.033-.018.033-.017.031-.018.034-.016c.01-.005.02-.012.03-.02.012-.007.025-.014.036-.023l.04-.029c.013-.01.026-.018.04-.027l.043-.028c.015-.01.028-.021.043-.03l.047-.032.049-.031.05-.036.053-.035.055-.035c.018-.012.034-.025.053-.037l.056-.035.053-.037.05-.033.052-.034.048-.033.047-.03.045-.026.043-.03.041-.027.043-.03.047-.029.047-.031.049-.033c.016-.011.03-.023.047-.033.016-.011.032-.02.048-.032l.05-.033.046-.033.045-.033.047-.031.043-.034.043-.033.043-.033.043-.033.041-.033.04-.032.038-.031.04-.03.038-.03.041-.03.043-.03.045-.028.045-.03.049-.031.049-.031c.016-.011.032-.023.049-.033l.052-.032.057-.033.062-.033.063-.037.062-.035.061-.034.06-.03c.02-.011.04-.024.06-.034l.056-.03.054-.029.051-.027.051-.027.053-.03.05-.029c.018-.01.036-.022.053-.033.018-.011.034-.023.051-.035l.055-.043a2.172 2.172 0 0 1 .123-.094l.06-.045.059-.04.054-.042.055-.039.057-.041.058-.041.059-.041c.02-.014.037-.028.057-.041l.056-.04.055-.036.053-.035.054-.037.067-.043.068-.043.072-.05.08-.05.084-.055.092-.06.012-.008-.002-.002.025-.024.028-.029.037-.035.049-.047.058-.053a.797.797 0 0 1 .074-.058c.04-.028.083-.055.123-.082a4.29 4.29 0 0 0 .322-.24l.17-.14.18-.138a17.211 17.211 0 0 1 .348-.262l.172-.125.168-.123.133-.097z" style="fill:red;fill-opacity:1;fill-rule:nonzero;stroke:none"/></clipPath><clipPath id="c" clipPathUnits="userSpaceOnUse"><path d="M381.697.895v496.742H740.72V.895ZM509.891 52.85l.006.01-.133.095-.168.123-.172.127c-.058.042-.117.084-.174.127l-.174.133c-.06.046-.118.091-.177.139l-.17.138a4.32 4.32 0 0 1-.327.242l-.12.08a.802.802 0 0 0-.075.06c-.02.016-.037.034-.056.052l-.05.045a.94.94 0 0 0-.036.037c-.008.009-.019.017-.028.025v.002l.006.008-.045.03-.091.058-.084.055-.08.05-.073.05c-.022.014-.046.027-.068.042l-.065.043a3.402 3.402 0 0 1-.109.072l-.055.038c-.018.013-.038.025-.056.039l-.057.04-.058.042-.059.04-.057.042-.052.039c-.019.013-.038.028-.057.04l-.059.042-.06.045c-.021.015-.042.033-.063.049l-.06.046c-.018.015-.036.028-.055.041l-.05.038-.053.03-.053.03-.05.03-.052.027-.052.029-.053.03-.057.029-.06.03-.059.034-.06.033-.063.035-.064.036-.06.035c-.02.01-.039.022-.057.033l-.053.031a1.84 1.84 0 0 0-.049.031l-.049.032-.048.03c-.016.01-.03.022-.045.032l-.045.03-.043.029a1.278 1.278 0 0 0-.08.058l-.04.03-.039.03-.039.032-.04.033-.044.034-.043.033-.043.035-.043.031-.045.033-.046.032a7.459 7.459 0 0 1-.047.033l-.05.033-.046.033c-.016.011-.033.02-.049.032l-.049.033-.047.031-.044.03-.045.029-.041.027-.043.03c-.015.009-.03.02-.045.028l-.047.03-.049.031-.05.033-.052.035-.052.036a4.14 4.14 0 0 1-.057.037l-.053.035-.054.037c-.018.012-.036.021-.053.033a7.767 7.767 0 0 0-.05.035l-.05.034-.046.03-.043.03-.043.03a3.43 3.43 0 0 0-.08.055l-.036.022a.356.356 0 0 1-.033.02l-.031.018-.033.017-.032.016-.033.017-.033.02-.035.017-.031.016-.028.014-.03.015-.032.018-.031.02c-.012.006-.022.014-.033.021l-.038.023-.037.026c-.013.01-.027.018-.04.027l-.042.03-.045.033-.046.035-.05.039a4.373 4.373 0 0 1-.052.039l-.059.043a6.068 6.068 0 0 0-.119.088 3.822 3.822 0 0 1-.054.039l-.053.037-.049.033-.053.035-.05.036c-.017.01-.033.021-.05.033l-.05.035c-.019.013-.038.028-.057.04l-.058.044c-.022.016-.045.03-.067.047-.023.018-.046.037-.07.054l-.076.059a10.17 10.17 0 0 0-.152.117 8.697 8.697 0 0 1-.07.053l-.063.049-.057.04c-.016.013-.032.025-.049.036l-.044.03a1.036 1.036 0 0 1-.04.023l-.029.017-.03.018-.03.017-.03.018-.029.02-.03.02-.03.019-.032.02-.035.02a.573.573 0 0 0-.031.022l-.03.024-.029.021-.029.021-.033.024-.03.025c-.01.009-.022.016-.033.024l-.03.023-.034.026-.03.021-.027.023c-.009.008-.018.013-.027.02l-.027.022-.03.023-.029.023-.031.024-.031.023-.028.022-.023.017-.023.018-.024.017-.023.018-.026.018-.023.017-.027.02c-.01.006-.017.013-.026.02l-.025.02-.026.02-.025.02-.027.02a2.692 2.692 0 0 1-.057.038l-.03.02-.03.021-.03.018-.027.018-.027.017-.03.02-.03.021-.03.02-.031.021c-.01.007-.019.011-.028.018l-.027.02-.027.019-.026.017-.027.022-.026.021-.029.024-.03.023-.028.026-.028.021-.027.022c-.01.006-.018.012-.027.02l-.028.02-.027.022-.027.022-.03.023-.03.023-.034.026-.031.023-.035.028-.036.025-.035.025-.035.026a1.975 1.975 0 0 1-.063.043l-.027.021-.025.022-.028.021-.027.024-.03.023-.029.025-.029.026-.03.023-.028.024-.03.023-.029.022-.031.023c-.01.007-.021.012-.031.02l-.032.021-.029.022-.03.02-.027.019-.029.02-.03.02c-.008.008-.02.015-.028.022l-.03.022-.029.021-.027.022c-.01.006-.019.014-.028.021l-.027.022c-.009.006-.018.012-.027.02a4.618 4.618 0 0 1-.055.038l-.027.02-.028.02c-.009.005-.018.01-.027.017l-.026.017-.023.016-.021.016-.024.017-.023.016-.022.015-.023.014a1.358 1.358 0 0 0-.02.014l-.021.017c-.007.006-.017.01-.024.016l-.019.016-.02.013a.436.436 0 0 1-.019.014l-.018.012-.02.01-.017.01-.02.01-.017.009-.02.01-.017.007-.02.008a.45.45 0 0 0-.017.008l-.018.008a1.351 1.351 0 0 1-.017.008l-.018.007-.017.008-.018.008-.016.008-.017.006-.004-.008.017-.008.018-.008.016-.007.017-.008.018-.008.017-.008.018-.008.018-.007.02-.008a.45.45 0 0 0 .017-.008l.02-.01.017-.008.017-.01.02-.01.017-.01.02-.013a.426.426 0 0 0 .037-.025l.022-.018.021-.015.022-.016.021-.014.022-.015.021-.016.023-.015.024-.016.023-.016.024-.017.025-.018.025-.017.028-.018.027-.02.03-.02.025-.019c.009-.006.02-.012.03-.02.008-.006.015-.014.024-.02l.028-.022.03-.022.027-.021.029-.024.03-.019.028-.022.03-.021.03-.02.026-.02.032-.019.029-.021c.01-.007.023-.014.033-.022l.03-.021.029-.023c.01-.008.021-.014.03-.022l.028-.023.03-.024.029-.025.03-.024.028-.025.028-.023.027-.022.025-.021.028-.022.029-.02.033-.023.037-.025.035-.026.036-.027.033-.025.033-.026.031-.023.031-.024.03-.023.027-.022c.01-.006.018-.014.027-.021l.028-.022.027-.021c.01-.007.018-.012.027-.02l.028-.023.03-.023.028-.024.03-.023.027-.022c.009-.007.016-.015.025-.021l.026-.02.027-.017.027-.02.028-.02.031-.019.031-.021.03-.02.029-.02.03-.017.026-.018.03-.017.03-.022.028-.021.03-.02.027-.02c.009-.006.018-.01.027-.017.01-.006.017-.013.026-.02l.025-.02.026-.02.027-.02.025-.02c.008-.006.016-.01.024-.017l.025-.018.023-.017.026-.018c.008-.005.013-.012.021-.017l.024-.02.027-.02.031-.023.031-.023.03-.024.03-.023.026-.022c.01-.007.019-.012.028-.02.009-.006.018-.015.027-.023l.03-.021.033-.026.03-.023.034-.025.031-.024.031-.023.03-.022.029-.023.03-.022.032-.021.034-.022.033-.021.031-.02.03-.02.029-.017.029-.017.03-.02.029-.017.03-.018c.014-.007.025-.016.038-.023l.045-.028c.016-.01.032-.023.049-.035l.056-.04c.021-.017.041-.034.063-.05l.07-.052a6.1 6.1 0 0 0 .152-.118l.078-.06.07-.053.065-.049.06-.043.057-.039.051-.035.049-.035.05-.033.053-.035.05-.036.052-.035.055-.039c.02-.014.038-.03.058-.045l.06-.045.057-.04.055-.04c.017-.012.032-.026.049-.039l.047-.035.045-.033.04-.03.042-.029.039-.025.035-.022.033-.021.033-.02.032-.017.029-.016.03-.016.03-.015a3.48 3.48 0 0 0 .034-.018l.033-.017.033-.018.033-.017.031-.018.034-.016c.01-.005.02-.012.03-.02.012-.007.025-.014.036-.023l.04-.029c.013-.01.026-.018.04-.027l.043-.028c.015-.01.028-.021.043-.03l.047-.032.049-.031.05-.036.053-.035.055-.035c.018-.012.034-.025.053-.037l.056-.035.053-.037.05-.033.052-.034.048-.033.047-.03.045-.026.043-.03.041-.027.043-.03.047-.029.047-.031.049-.033c.016-.011.03-.023.047-.033.016-.011.032-.02.048-.032l.05-.033.046-.033.045-.033.047-.031.043-.034.043-.033.043-.033.043-.033.041-.033.04-.032.038-.031.04-.03.038-.03.041-.03.043-.03.045-.028.045-.03.049-.031.049-.031c.016-.011.032-.023.049-.033l.052-.032.057-.033.062-.033.063-.037.062-.035.061-.034.06-.03c.02-.011.04-.024.06-.034l.056-.03.054-.029.051-.027.051-.027.053-.03.05-.029c.018-.01.036-.022.053-.033.018-.011.034-.023.051-.035l.055-.043a2.172 2.172 0 0 1 .123-.094l.06-.045.059-.04.054-.042.055-.039.057-.041.058-.041.059-.041c.02-.014.037-.028.057-.041l.056-.04.055-.036.053-.035.054-.037.067-.043.068-.043.072-.05.08-.05.084-.055.092-.06.012-.008-.002-.002.025-.024.028-.029.037-.035.049-.047.058-.053a.797.797 0 0 1 .074-.058c.04-.028.083-.055.123-.082a4.29 4.29 0 0 0 .322-.24l.17-.14.18-.138a17.211 17.211 0 0 1 .348-.262l.172-.125.168-.123.133-.097z" style="fill:red;fill-opacity:1;fill-rule:nonzero;stroke:none"/></clipPath></defs><path d="M401.169 507.49c28.197.01 56.226-11.588 76.172-31.52 19.946-19.93 31.564-47.95 31.574-76.148.01-28.198-11.587-56.226-31.518-76.172-19.932-19.946-47.952-31.564-76.15-31.575-28.197-.01-56.225 11.588-76.171 31.519-19.946 19.931-31.564 47.951-31.575 76.149-.01 28.197 11.588 56.226 31.519 76.172 19.931 19.946 47.951 31.564 76.149 31.574z" style="fill:none;stroke:#000;stroke-width:23.4556;stroke-linecap:butt;stroke-linejoin:miter;stroke-miterlimit:4;stroke-dasharray:none;stroke-opacity:1"/><path d="M561.226 16.245c-42.977-.007-85.691 25.1-116.084 68.232-30.392 43.132-48.089 103.758-48.094 164.763 0 61.004 17.683 121.636 48.069 164.777 30.386 43.141 73.096 68.261 116.073 68.268 42.977.007 85.692-25.1 116.084-68.232 30.393-43.132 48.09-103.758 48.094-164.762 0-61.005-17.682-121.637-48.069-164.778-30.385-43.141-73.096-68.261-116.073-68.268Z" clip-path="url(#a)" style="fill:none;stroke:#000;stroke-width:30.7016;stroke-linecap:butt;stroke-linejoin:miter;stroke-miterlimit:4;stroke-dasharray:none;stroke-opacity:1" transform="matrix(-1 0 0 1 803.455 0)"/><g clip-path="url(#b)" transform="matrix(-1.5882 0 0 1.56266 2675.958 -476.278)"><path d="M1609.718 577.258c-4.362.501-28.045 20.86-28.045 20.86s-37.507 45.413-43.815 78.799a34.806 34.806 0 0 1-1.199 4.625c.145.4.195.893.113 1.478-.093.666-.112.748-.168 1.293h.01c.012.002.001.025-.01.027l.035.02c.113.064.07.304-.076.303l-.059-.002a.57.57 0 0 0-.064.138c-.01.032-.01.064-.014.096.203.67.768 1.79-.546 1.127.018.06.04.12.048.18-.015-.052-.043-.112-.07-.17v.121c0 .03.044.092 0 .092-.01.226-.038.436-.087.63.01.001.019 0 .023.016a1.26 1.26 0 0 0 .154-.433 4.34 4.34 0 0 1-.07.549c-.022.116.07-.23.086-.346 0-.253.01-.052.01.06v.319c-.064.057-.135.11-.201.166l-.037.279c.026-.013.047-.029.074-.041.528-.24 0 .288-.38.64l-.05.067c-.134.115-.092.077-.125.106-.227.244-.601.478-1.207.779-1.567.778-2.955.806-3.826.435-.703.108-1.17.016-1.17.016s-2.318-35.71-42.61-88.355c-3.743-4.89-17.889-9.65-17.889-9.65s46.327 57.848 49.618 113.401c.328 5.543 18.952 2.49 25.048 1.354.316-.338.65-.662 1.012-.977.108-.161.214-.324.324-.484.398-.575.609-.869.848-1.205-1.395-8.314-1.87-42.199 57.99-115.37 6.786-8.294 8.04-11.139 6.332-10.943zm-73.114 107.083v-.028l-.064-.008.062.033zm-.638.308c-.03.118-.065.23-.108.336v.748c.176-.248.351-.495.528-.742a.222.222 0 0 0 .039-.096 1.644 1.644 0 0 1-.055-.236c-.135-.002-.27-.006-.405-.01zm-.176 2.242-.045.08a2.54 2.54 0 0 1-.133.364l.154-.13c.01-.06.012-.094.024-.173a.333.333 0 0 0 0-.14zm-.236.567c-.301.572-.794.95-1.348 1.134-.05.058-.123.105-.168.165-.136.178.439-.127.754-.247.267-.287.434-.646.75-.898-.028.227-.1.415-.25.594l.13-.121c.228-.296.267-.327.306-.6a1.255 1.255 0 0 0-.184.121c.01-.045.01-.098.01-.148z" style="color:#000;fill:#000;stroke-width:6.5144;-inkscape-stroke:none"/><path d="m1609.527 574.002-.174.021.364-.021zm-.174.021h-.01c-1.621.187-2.483.757-3.693 1.444-1.21.687-2.554 1.567-4.021 2.592-2.935 2.049-6.34 4.67-9.602 7.27-6.526 5.199-12.48 10.32-12.48 10.32l-.211.181-.176.213s-9.487 11.484-19.756 27.17c-10.27 15.686-21.426 35.514-24.748 53.1a31.34 31.34 0 0 1-1.09 4.203l-.197.593-2.8-1.41c-.948-4.148-2.298-9.26-4.651-15.758-5.728-15.817-16.547-38.208-36.89-64.789-2.766-3.612-7.431-5.775-11.6-7.65-4.17-1.876-7.838-3.107-7.838-3.107l-10.518-3.541 6.938 8.664s45.716 57.673 48.908 111.558c.095 1.61 1.027 3.155 2.129 4.041 1.101.887 2.294 1.326 3.521 1.635 2.454.618 5.198.68 8.088.568 5.78-.225 12.04-1.3 15.158-1.88l1.055-.198.73-.783c.24-.256.491-.5.768-.74l.33-.29.244-.365c.12-.18.215-.325.291-.435.386-.559.578-.826.822-1.17l.782-1.098-.223-1.33c-1.176-7.008-2.245-39.985 57.299-112.767 3.446-4.213 5.513-7.02 6.684-9.149.585-1.064 1.144-1.79 1.066-3.54-.04-.876-.607-2.286-1.668-2.975-1.062-.69-2.008-.65-2.643-.577zm-9.798 13.776c-56.545 69.628-58.824 103.836-57.489 114.853-.074.107-.1.142-.189.272-.069.1-.113.167-.17.252 0 .003 0 .005-.01.008v.002c-3.163.57-8.53 1.44-13.291 1.625-2.57.1-4.923-.044-6.244-.377-.513-.13-.673-.235-.799-.303-2.741-42.707-29.544-85.75-42.854-104.685 2.478 1.395 4.695 2.814 5.346 3.666 19.948 26.063 30.434 47.849 35.938 63.048 5.504 15.2 6.008 23.538 6.008 23.538l.162 2.501 2.459.485s.993.087 1.992.006c.217.037.43.084.65.1l-.668 3.025 2.205-1.738v1.863l1.586-2.233.56 2.17 2.772-5.27.252-.216.043-.057 2.047 2.15v-6.12c.01-.122.118-.333.117-.432 0-.401-.065-.5-.101-.756.022-.109-.03-.256-.016-.375v-.258c0-.031.01-.056.01-.09.033-.304.046-.403.127-.98v-.002c.064-.459-.097-.912-.125-1.375.427-1.334.847-2.782 1.185-4.574 2.985-15.8 13.736-35.373 23.797-50.74 9.916-15.146 18.897-26.056 19.158-26.373.203-.174 5.783-4.97 12.076-9.985 1.198-.954 2.27-1.703 3.465-2.625zm-68.627 93.375.022.066h-.01c0-.02-.012-.047-.016-.066zm3.047 3.21.142.2-.312.248-.01-.01c.058-.147 0-.199.103-.365l.076-.072zm-.196 1.093.528.06.096.06-.061.014c.033.002.05-.002.086.002l.138.088-.074-.084c.035.004.04-.004.078.002l.615.47.025.015c0 .004 0 .004.01.008l.022.017.01-.002.057.036v.013l.141.108-.152-.075v.002l.08.114-.114-.01-.04.123-.12-.137-.465-.04.362-.077-.182-.207-.666-.324-.3.062-.147-.129c.065-.009.245.018.336.012l-.252-.121zm-2.056.064.572.287-.447.514c-.03-.238-.083-.502-.125-.8zm2.713.012.057.006.022.015-.05.01zm-.803 1.375.111.103v-.008l.164.158-.908.192-.139-.096c-.013-.023 0 .036-.059-.168zm4.012 3.543-.108.103.01-.015.08-.075c.01-.007.013-.006.02-.013z" style="color:#000;fill:#000;-inkscape-stroke:none"/></g><g clip-path="url(#b)" transform="matrix(1.5882 0 0 1.56266 -2191.464 -476.278)"><path d="M1609.718 577.258c-4.362.501-28.045 20.86-28.045 20.86s-37.507 45.413-43.815 78.799a34.806 34.806 0 0 1-1.199 4.625c.145.4.195.893.113 1.478-.093.666-.112.748-.168 1.293h.01c.012.002.001.025-.01.027l.035.02c.113.064.07.304-.076.303l-.059-.002a.57.57 0 0 0-.064.138c-.01.032-.01.064-.014.096.203.67.768 1.79-.546 1.127.018.06.04.12.048.18-.015-.052-.043-.112-.07-.17v.121c0 .03.044.092 0 .092-.01.226-.038.436-.087.63.01.001.019 0 .023.016a1.26 1.26 0 0 0 .154-.433 4.34 4.34 0 0 1-.07.549c-.022.116.07-.23.086-.346 0-.253.01-.052.01.06v.319c-.064.057-.135.11-.201.166l-.037.279c.026-.013.047-.029.074-.041.528-.24 0 .288-.38.64l-.05.067c-.134.115-.092.077-.125.106-.227.244-.601.478-1.207.779-1.567.778-2.955.806-3.826.435-.703.108-1.17.016-1.17.016s-2.318-35.71-42.61-88.355c-3.743-4.89-17.889-9.65-17.889-9.65s46.327 57.848 49.618 113.401c.328 5.543 18.952 2.49 25.048 1.354.316-.338.65-.662 1.012-.977.108-.161.214-.324.324-.484.398-.575.609-.869.848-1.205-1.395-8.314-1.87-42.199 57.99-115.37 6.786-8.294 8.04-11.139 6.332-10.943zm-73.114 107.083v-.028l-.064-.008.062.033zm-.638.308c-.03.118-.065.23-.108.336v.748c.176-.248.351-.495.528-.742a.222.222 0 0 0 .039-.096 1.644 1.644 0 0 1-.055-.236c-.135-.002-.27-.006-.405-.01zm-.176 2.242-.045.08a2.54 2.54 0 0 1-.133.364l.154-.13c.01-.06.012-.094.024-.173a.333.333 0 0 0 0-.14zm-.236.567c-.301.572-.794.95-1.348 1.134-.05.058-.123.105-.168.165-.136.178.439-.127.754-.247.267-.287.434-.646.75-.898-.028.227-.1.415-.25.594l.13-.121c.228-.296.267-.327.306-.6a1.255 1.255 0 0 0-.184.121c.01-.045.01-.098.01-.148z" style="color:#000;fill:#000;stroke-width:6.5144;-inkscape-stroke:none"/><path d="m1609.527 574.002-.174.021.364-.021zm-.174.021h-.01c-1.621.187-2.483.757-3.693 1.444-1.21.687-2.554 1.567-4.021 2.592-2.935 2.049-6.34 4.67-9.602 7.27-6.526 5.199-12.48 10.32-12.48 10.32l-.211.181-.176.213s-9.487 11.484-19.756 27.17c-10.27 15.686-21.426 35.514-24.748 53.1a31.34 31.34 0 0 1-1.09 4.203l-.197.593-2.8-1.41c-.948-4.148-2.298-9.26-4.651-15.758-5.728-15.817-16.547-38.208-36.89-64.789-2.766-3.612-7.431-5.775-11.6-7.65-4.17-1.876-7.838-3.107-7.838-3.107l-10.518-3.541 6.938 8.664s45.716 57.673 48.908 111.558c.095 1.61 1.027 3.155 2.129 4.041 1.101.887 2.294 1.326 3.521 1.635 2.454.618 5.198.68 8.088.568 5.78-.225 12.04-1.3 15.158-1.88l1.055-.198.73-.783c.24-.256.491-.5.768-.74l.33-.29.244-.365c.12-.18.215-.325.291-.435.386-.559.578-.826.822-1.17l.782-1.098-.223-1.33c-1.176-7.008-2.245-39.985 57.299-112.767 3.446-4.213 5.513-7.02 6.684-9.149.585-1.064 1.144-1.79 1.066-3.54-.04-.876-.607-2.286-1.668-2.975-1.062-.69-2.008-.65-2.643-.577zm-9.798 13.776c-56.545 69.628-58.824 103.836-57.489 114.853-.074.107-.1.142-.189.272-.069.1-.113.167-.17.252 0 .003 0 .005-.01.008v.002c-3.163.57-8.53 1.44-13.291 1.625-2.57.1-4.923-.044-6.244-.377-.513-.13-.673-.235-.799-.303-2.741-42.707-29.544-85.75-42.854-104.685 2.478 1.395 4.695 2.814 5.346 3.666 19.948 26.063 30.434 47.849 35.938 63.048 5.504 15.2 6.008 23.538 6.008 23.538l.162 2.501 2.459.485s.993.087 1.992.006c.217.037.43.084.65.1l-.668 3.025 2.205-1.738v1.863l1.586-2.233.56 2.17 2.772-5.27.252-.216.043-.057 2.047 2.15v-6.12c.01-.122.118-.333.117-.432 0-.401-.065-.5-.101-.756.022-.109-.03-.256-.016-.375v-.258c0-.031.01-.056.01-.09.033-.304.046-.403.127-.98v-.002c.064-.459-.097-.912-.125-1.375.427-1.334.847-2.782 1.185-4.574 2.985-15.8 13.736-35.373 23.797-50.74 9.916-15.146 18.897-26.056 19.158-26.373.203-.174 5.783-4.97 12.076-9.985 1.198-.954 2.27-1.703 3.465-2.625zm-68.627 93.375.022.066h-.01c0-.02-.012-.047-.016-.066zm3.047 3.21.142.2-.312.248-.01-.01c.058-.147 0-.199.103-.365l.076-.072zm-.196 1.093.528.06.096.06-.061.014c.033.002.05-.002.086.002l.138.088-.074-.084c.035.004.04-.004.078.002l.615.47.025.015c0 .004 0 .004.01.008l.022.017.01-.002.057.036v.013l.141.108-.152-.075v.002l.08.114-.114-.01-.04.123-.12-.137-.465-.04.362-.077-.182-.207-.666-.324-.3.062-.147-.129c.065-.009.245.018.336.012l-.252-.121zm-2.056.064.572.287-.447.514c-.03-.238-.083-.502-.125-.8zm2.713.012.057.006.022.015-.05.01zm-.803 1.375.111.103v-.008l.164.158-.908.192-.139-.096c-.013-.023 0 .036-.059-.168zm4.012 3.543-.108.103.01-.015.08-.075c.01-.007.013-.006.02-.013z" style="color:#000;fill:#000;-inkscape-stroke:none"/></g><rect width="50.383" height="184.223" x="-267.438" y="611.135" rx="1.031" ry=".989" style="fill:#000;fill-opacity:1;stroke:#000;stroke-width:6.62385;stroke-miterlimit:4;stroke-dasharray:none;stroke-opacity:1" transform="scale(-1 1)"/><path d="M561.226 16.245c-42.977-.007-85.691 25.1-116.084 68.232-30.392 43.132-48.089 103.758-48.094 164.763 0 61.004 17.683 121.636 48.069 164.777 30.386 43.141 73.096 68.261 116.073 68.268 42.977.007 85.692-25.1 116.084-68.232 30.393-43.132 48.09-103.758 48.094-164.762 0-61.005-17.682-121.637-48.069-164.778-30.385-43.141-73.096-68.261-116.073-68.268Z" clip-path="url(#c)" style="fill:none;stroke:#000;stroke-width:30.7016;stroke-linecap:butt;stroke-linejoin:miter;stroke-miterlimit:4;stroke-dasharray:none;stroke-opacity:1" transform="matrix(-1 0 0 1 803.455 0)"/><g clip-path="url(#b)" transform="matrix(-1.5882 0 0 1.56266 2675.958 -476.278)"><path d="M1609.718 577.258c-4.362.501-28.045 20.86-28.045 20.86s-37.507 45.413-43.815 78.799a34.806 34.806 0 0 1-1.199 4.625c.145.4.195.893.113 1.478-.093.666-.112.748-.168 1.293h.01c.012.002.001.025-.01.027l.035.02c.113.064.07.304-.076.303l-.059-.002a.57.57 0 0 0-.064.138c-.01.032-.01.064-.014.096.203.67.768 1.79-.546 1.127.018.06.04.12.048.18-.015-.052-.043-.112-.07-.17v.121c0 .03.044.092 0 .092-.01.226-.038.436-.087.63.01.001.019 0 .023.016a1.26 1.26 0 0 0 .154-.433 4.34 4.34 0 0 1-.07.549c-.022.116.07-.23.086-.346 0-.253.01-.052.01.06v.319c-.064.057-.135.11-.201.166l-.037.279c.026-.013.047-.029.074-.041.528-.24 0 .288-.38.64l-.05.067c-.134.115-.092.077-.125.106-.227.244-.601.478-1.207.779-1.567.778-2.955.806-3.826.435-.703.108-1.17.016-1.17.016s-2.318-35.71-42.61-88.355c-3.743-4.89-17.889-9.65-17.889-9.65s46.327 57.848 49.618 113.401c.328 5.543 18.952 2.49 25.048 1.354.316-.338.65-.662 1.012-.977.108-.161.214-.324.324-.484.398-.575.609-.869.848-1.205-1.395-8.314-1.87-42.199 57.99-115.37 6.786-8.294 8.04-11.139 6.332-10.943zm-73.114 107.083v-.028l-.064-.008.062.033zm-.638.308c-.03.118-.065.23-.108.336v.748c.176-.248.351-.495.528-.742a.222.222 0 0 0 .039-.096 1.644 1.644 0 0 1-.055-.236c-.135-.002-.27-.006-.405-.01zm-.176 2.242-.045.08a2.54 2.54 0 0 1-.133.364l.154-.13c.01-.06.012-.094.024-.173a.333.333 0 0 0 0-.14zm-.236.567c-.301.572-.794.95-1.348 1.134-.05.058-.123.105-.168.165-.136.178.439-.127.754-.247.267-.287.434-.646.75-.898-.028.227-.1.415-.25.594l.13-.121c.228-.296.267-.327.306-.6a1.255 1.255 0 0 0-.184.121c.01-.045.01-.098.01-.148z" style="color:#000;fill:#000;stroke-width:6.5144;-inkscape-stroke:none"/><path d="m1609.527 574.002-.174.021.364-.021zm-.174.021h-.01c-1.621.187-2.483.757-3.693 1.444-1.21.687-2.554 1.567-4.021 2.592-2.935 2.049-6.34 4.67-9.602 7.27-6.526 5.199-12.48 10.32-12.48 10.32l-.211.181-.176.213s-9.487 11.484-19.756 27.17c-10.27 15.686-21.426 35.514-24.748 53.1a31.34 31.34 0 0 1-1.09 4.203l-.197.593-2.8-1.41c-.948-4.148-2.298-9.26-4.651-15.758-5.728-15.817-16.547-38.208-36.89-64.789-2.766-3.612-7.431-5.775-11.6-7.65-4.17-1.876-7.838-3.107-7.838-3.107l-10.518-3.541 6.938 8.664s45.716 57.673 48.908 111.558c.095 1.61 1.027 3.155 2.129 4.041 1.101.887 2.294 1.326 3.521 1.635 2.454.618 5.198.68 8.088.568 5.78-.225 12.04-1.3 15.158-1.88l1.055-.198.73-.783c.24-.256.491-.5.768-.74l.33-.29.244-.365c.12-.18.215-.325.291-.435.386-.559.578-.826.822-1.17l.782-1.098-.223-1.33c-1.176-7.008-2.245-39.985 57.299-112.767 3.446-4.213 5.513-7.02 6.684-9.149.585-1.064 1.144-1.79 1.066-3.54-.04-.876-.607-2.286-1.668-2.975-1.062-.69-2.008-.65-2.643-.577zm-9.798 13.776c-56.545 69.628-58.824 103.836-57.489 114.853-.074.107-.1.142-.189.272-.069.1-.113.167-.17.252 0 .003 0 .005-.01.008v.002c-3.163.57-8.53 1.44-13.291 1.625-2.57.1-4.923-.044-6.244-.377-.513-.13-.673-.235-.799-.303-2.741-42.707-29.544-85.75-42.854-104.685 2.478 1.395 4.695 2.814 5.346 3.666 19.948 26.063 30.434 47.849 35.938 63.048 5.504 15.2 6.008 23.538 6.008 23.538l.162 2.501 2.459.485s.993.087 1.992.006c.217.037.43.084.65.1l-.668 3.025 2.205-1.738v1.863l1.586-2.233.56 2.17 2.772-5.27.252-.216.043-.057 2.047 2.15v-6.12c.01-.122.118-.333.117-.432 0-.401-.065-.5-.101-.756.022-.109-.03-.256-.016-.375v-.258c0-.031.01-.056.01-.09.033-.304.046-.403.127-.98v-.002c.064-.459-.097-.912-.125-1.375.427-1.334.847-2.782 1.185-4.574 2.985-15.8 13.736-35.373 23.797-50.74 9.916-15.146 18.897-26.056 19.158-26.373.203-.174 5.783-4.97 12.076-9.985 1.198-.954 2.27-1.703 3.465-2.625zm-68.627 93.375.022.066h-.01c0-.02-.012-.047-.016-.066zm3.047 3.21.142.2-.312.248-.01-.01c.058-.147 0-.199.103-.365l.076-.072zm-.196 1.093.528.06.096.06-.061.014c.033.002.05-.002.086.002l.138.088-.074-.084c.035.004.04-.004.078.002l.615.47.025.015c0 .004 0 .004.01.008l.022.017.01-.002.057.036v.013l.141.108-.152-.075v.002l.08.114-.114-.01-.04.123-.12-.137-.465-.04.362-.077-.182-.207-.666-.324-.3.062-.147-.129c.065-.009.245.018.336.012l-.252-.121zm-2.056.064.572.287-.447.514c-.03-.238-.083-.502-.125-.8zm2.713.012.057.006.022.015-.05.01zm-.803 1.375.111.103v-.008l.164.158-.908.192-.139-.096c-.013-.023 0 .036-.059-.168zm4.012 3.543-.108.103.01-.015.08-.075c.01-.007.013-.006.02-.013z" style="color:#000;fill:#000;-inkscape-stroke:none"/></g><g clip-path="url(#b)" transform="matrix(1.5882 0 0 1.56266 -2191.464 -476.278)"><path d="M1609.718 577.258c-4.362.501-28.045 20.86-28.045 20.86s-37.507 45.413-43.815 78.799a34.806 34.806 0 0 1-1.199 4.625c.145.4.195.893.113 1.478-.093.666-.112.748-.168 1.293h.01c.012.002.001.025-.01.027l.035.02c.113.064.07.304-.076.303l-.059-.002a.57.57 0 0 0-.064.138c-.01.032-.01.064-.014.096.203.67.768 1.79-.546 1.127.018.06.04.12.048.18-.015-.052-.043-.112-.07-.17v.121c0 .03.044.092 0 .092-.01.226-.038.436-.087.63.01.001.019 0 .023.016a1.26 1.26 0 0 0 .154-.433 4.34 4.34 0 0 1-.07.549c-.022.116.07-.23.086-.346 0-.253.01-.052.01.06v.319c-.064.057-.135.11-.201.166l-.037.279c.026-.013.047-.029.074-.041.528-.24 0 .288-.38.64l-.05.067c-.134.115-.092.077-.125.106-.227.244-.601.478-1.207.779-1.567.778-2.955.806-3.826.435-.703.108-1.17.016-1.17.016s-2.318-35.71-42.61-88.355c-3.743-4.89-17.889-9.65-17.889-9.65s46.327 57.848 49.618 113.401c.328 5.543 18.952 2.49 25.048 1.354.316-.338.65-.662 1.012-.977.108-.161.214-.324.324-.484.398-.575.609-.869.848-1.205-1.395-8.314-1.87-42.199 57.99-115.37 6.786-8.294 8.04-11.139 6.332-10.943zm-73.114 107.083v-.028l-.064-.008.062.033zm-.638.308c-.03.118-.065.23-.108.336v.748c.176-.248.351-.495.528-.742a.222.222 0 0 0 .039-.096 1.644 1.644 0 0 1-.055-.236c-.135-.002-.27-.006-.405-.01zm-.176 2.242-.045.08a2.54 2.54 0 0 1-.133.364l.154-.13c.01-.06.012-.094.024-.173a.333.333 0 0 0 0-.14zm-.236.567c-.301.572-.794.95-1.348 1.134-.05.058-.123.105-.168.165-.136.178.439-.127.754-.247.267-.287.434-.646.75-.898-.028.227-.1.415-.25.594l.13-.121c.228-.296.267-.327.306-.6a1.255 1.255 0 0 0-.184.121c.01-.045.01-.098.01-.148z" style="color:#000;fill:#000;stroke-width:6.5144;-inkscape-stroke:none"/><path d="m1609.527 574.002-.174.021.364-.021zm-.174.021h-.01c-1.621.187-2.483.757-3.693 1.444-1.21.687-2.554 1.567-4.021 2.592-2.935 2.049-6.34 4.67-9.602 7.27-6.526 5.199-12.48 10.32-12.48 10.32l-.211.181-.176.213s-9.487 11.484-19.756 27.17c-10.27 15.686-21.426 35.514-24.748 53.1a31.34 31.34 0 0 1-1.09 4.203l-.197.593-2.8-1.41c-.948-4.148-2.298-9.26-4.651-15.758-5.728-15.817-16.547-38.208-36.89-64.789-2.766-3.612-7.431-5.775-11.6-7.65-4.17-1.876-7.838-3.107-7.838-3.107l-10.518-3.541 6.938 8.664s45.716 57.673 48.908 111.558c.095 1.61 1.027 3.155 2.129 4.041 1.101.887 2.294 1.326 3.521 1.635 2.454.618 5.198.68 8.088.568 5.78-.225 12.04-1.3 15.158-1.88l1.055-.198.73-.783c.24-.256.491-.5.768-.74l.33-.29.244-.365c.12-.18.215-.325.291-.435.386-.559.578-.826.822-1.17l.782-1.098-.223-1.33c-1.176-7.008-2.245-39.985 57.299-112.767 3.446-4.213 5.513-7.02 6.684-9.149.585-1.064 1.144-1.79 1.066-3.54-.04-.876-.607-2.286-1.668-2.975-1.062-.69-2.008-.65-2.643-.577zm-9.798 13.776c-56.545 69.628-58.824 103.836-57.489 114.853-.074.107-.1.142-.189.272-.069.1-.113.167-.17.252 0 .003 0 .005-.01.008v.002c-3.163.57-8.53 1.44-13.291 1.625-2.57.1-4.923-.044-6.244-.377-.513-.13-.673-.235-.799-.303-2.741-42.707-29.544-85.75-42.854-104.685 2.478 1.395 4.695 2.814 5.346 3.666 19.948 26.063 30.434 47.849 35.938 63.048 5.504 15.2 6.008 23.538 6.008 23.538l.162 2.501 2.459.485s.993.087 1.992.006c.217.037.43.084.65.1l-.668 3.025 2.205-1.738v1.863l1.586-2.233.56 2.17 2.772-5.27.252-.216.043-.057 2.047 2.15v-6.12c.01-.122.118-.333.117-.432 0-.401-.065-.5-.101-.756.022-.109-.03-.256-.016-.375v-.258c0-.031.01-.056.01-.09.033-.304.046-.403.127-.98v-.002c.064-.459-.097-.912-.125-1.375.427-1.334.847-2.782 1.185-4.574 2.985-15.8 13.736-35.373 23.797-50.74 9.916-15.146 18.897-26.056 19.158-26.373.203-.174 5.783-4.97 12.076-9.985 1.198-.954 2.27-1.703 3.465-2.625zm-68.627 93.375.022.066h-.01c0-.02-.012-.047-.016-.066zm3.047 3.21.142.2-.312.248-.01-.01c.058-.147 0-.199.103-.365l.076-.072zm-.196 1.093.528.06.096.06-.061.014c.033.002.05-.002.086.002l.138.088-.074-.084c.035.004.04-.004.078.002l.615.47.025.015c0 .004 0 .004.01.008l.022.017.01-.002.057.036v.013l.141.108-.152-.075v.002l.08.114-.114-.01-.04.123-.12-.137-.465-.04.362-.077-.182-.207-.666-.324-.3.062-.147-.129c.065-.009.245.018.336.012l-.252-.121zm-2.056.064.572.287-.447.514c-.03-.238-.083-.502-.125-.8zm2.713.012.057.006.022.015-.05.01zm-.803 1.375.111.103v-.008l.164.158-.908.192-.139-.096c-.013-.023 0 .036-.059-.168zm4.012 3.543-.108.103.01-.015.08-.075c.01-.007.013-.006.02-.013z" style="color:#000;fill:#000;-inkscape-stroke:none"/></g><path d="M239.88 37.021a141.537 211.745 0 0 1 1.419-.044 141.537 211.745 0 0 1 4.674.421v422.645a141.537 211.745 0 0 1-4.674.422 141.537 211.745 0 0 1-1.418-.13z" style="opacity:.993343;fill:#000;stroke:none;stroke-width:.3;stroke-miterlimit:4;stroke-dasharray:none;stroke-opacity:1" transform="matrix(.9275 0 0 .93275 18.44 16.126)"/><path d="M381.709 230.479a141.537 211.745 0 0 1 .246 6.091H99.568a141.537 211.745 0 0 1 .254-6.091zM321.055 304.201H105.152a141.537 211.745 0 0 1-1.037-4.982 141.537 211.745 0 0 1-.137-1.11H328.84a126.036 124.704 0 0 0-2.448 1.776 126.036 124.704 0 0 0-4.289 3.406 126.036 124.704 0 0 0-1.048.91zM280.006 371.33H125.978a141.537 211.745 0 0 1-1.152-2.2 141.537 211.745 0 0 1-1.572-3.892h158.303a126.036 124.704 0 0 0-1.036 3.823 126.036 124.704 0 0 0-.515 2.27zM370.974 160.691a141.537 211.745 0 0 1 1.833 6.092H111.465a141.537 211.745 0 0 1 1.142-4.13 141.537 211.745 0 0 1 .608-1.962zM336.39 90.283a141.537 211.745 0 0 1 .198.23 141.537 211.745 0 0 1 3.918 5.862H144.674a141.537 211.745 0 0 1 2.197-3.154 141.537 211.745 0 0 1 2.223-2.938z" style="opacity:.993343;fill:#000;stroke:none;stroke-width:.3;stroke-miterlimit:4;stroke-dasharray:none;stroke-opacity:1" transform="matrix(.9275 0 0 .93275 18.44 16.126)"/><path d="M133.176 112.184a141.537 211.745 0 0 1 1.664-2.954 141.537 211.745 0 0 1 4.064-6.619 141.537 211.745 0 0 1 .363-.543v293.635a141.537 211.745 0 0 1-4.12-6.164 141.537 211.745 0 0 1-1.971-3.764zM185.978 54.768a141.537 211.745 0 0 1 4.073-2.6 141.537 211.745 0 0 1 2.02-1.14V446.25a141.537 211.745 0 0 1-6.093-4.102zM344.26 103.363a141.537 211.745 0 0 1 3.66 5.477 141.537 211.745 0 0 1 2.431 4.642V286.38a126.036 124.704 0 0 0-2.144.965 126.036 124.704 0 0 0-3.947 1.99zM289.617 49.947a141.537 211.745 0 0 1 2.895 1.35 141.537 211.745 0 0 1 3.197 2.152v279.572a126.036 124.704 0 0 0-2.225 3.592 126.036 124.704 0 0 0-3.148 5.739 126.036 124.704 0 0 0-.719 1.492z" style="opacity:.993343;fill:#000;stroke:none;stroke-width:.3;stroke-miterlimit:4;stroke-dasharray:none;stroke-opacity:1" transform="matrix(.9275 0 0 .93275 18.44 16.126)"/><g transform="rotate(180 403.71 399.782)"><path d="M561.226 16.245c-42.977-.007-85.691 25.1-116.084 68.232-30.392 43.132-48.089 103.758-48.094 164.763 0 61.004 17.683 121.636 48.069 164.777 30.386 43.141 73.096 68.261 116.073 68.268 42.977.007 85.692-25.1 116.084-68.232 30.393-43.132 48.09-103.758 48.094-164.762 0-61.005-17.682-121.637-48.069-164.778-30.385-43.141-73.096-68.261-116.073-68.268Z" clip-path="url(#a)" style="fill:none;stroke:#000;stroke-width:30.7016;stroke-linecap:butt;stroke-linejoin:miter;stroke-miterlimit:4;stroke-dasharray:none;stroke-opacity:1" transform="matrix(-1 0 0 1 803.455 0)"/><g clip-path="url(#b)" transform="matrix(-1.5882 0 0 1.56266 2675.958 -476.278)"><path d="M1609.718 577.258c-4.362.501-28.045 20.86-28.045 20.86s-37.507 45.413-43.815 78.799a34.806 34.806 0 0 1-1.199 4.625c.145.4.195.893.113 1.478-.093.666-.112.748-.168 1.293h.01c.012.002.001.025-.01.027l.035.02c.113.064.07.304-.076.303l-.059-.002a.57.57 0 0 0-.064.138c-.01.032-.01.064-.014.096.203.67.768 1.79-.546 1.127.018.06.04.12.048.18-.015-.052-.043-.112-.07-.17v.121c0 .03.044.092 0 .092-.01.226-.038.436-.087.63.01.001.019 0 .023.016a1.26 1.26 0 0 0 .154-.433 4.34 4.34 0 0 1-.07.549c-.022.116.07-.23.086-.346 0-.253.01-.052.01.06v.319c-.064.057-.135.11-.201.166l-.037.279c.026-.013.047-.029.074-.041.528-.24 0 .288-.38.64l-.05.067c-.134.115-.092.077-.125.106-.227.244-.601.478-1.207.779-1.567.778-2.955.806-3.826.435-.703.108-1.17.016-1.17.016s-2.318-35.71-42.61-88.355c-3.743-4.89-17.889-9.65-17.889-9.65s46.327 57.848 49.618 113.401c.328 5.543 18.952 2.49 25.048 1.354.316-.338.65-.662 1.012-.977.108-.161.214-.324.324-.484.398-.575.609-.869.848-1.205-1.395-8.314-1.87-42.199 57.99-115.37 6.786-8.294 8.04-11.139 6.332-10.943zm-73.114 107.083v-.028l-.064-.008.062.033zm-.638.308c-.03.118-.065.23-.108.336v.748c.176-.248.351-.495.528-.742a.222.222 0 0 0 .039-.096 1.644 1.644 0 0 1-.055-.236c-.135-.002-.27-.006-.405-.01zm-.176 2.242-.045.08a2.54 2.54 0 0 1-.133.364l.154-.13c.01-.06.012-.094.024-.173a.333.333 0 0 0 0-.14zm-.236.567c-.301.572-.794.95-1.348 1.134-.05.058-.123.105-.168.165-.136.178.439-.127.754-.247.267-.287.434-.646.75-.898-.028.227-.1.415-.25.594l.13-.121c.228-.296.267-.327.306-.6a1.255 1.255 0 0 0-.184.121c.01-.045.01-.098.01-.148z" style="color:#000;fill:#000;stroke-width:6.5144;-inkscape-stroke:none"/><path d="m1609.527 574.002-.174.021.364-.021zm-.174.021h-.01c-1.621.187-2.483.757-3.693 1.444-1.21.687-2.554 1.567-4.021 2.592-2.935 2.049-6.34 4.67-9.602 7.27-6.526 5.199-12.48 10.32-12.48 10.32l-.211.181-.176.213s-9.487 11.484-19.756 27.17c-10.27 15.686-21.426 35.514-24.748 53.1a31.34 31.34 0 0 1-1.09 4.203l-.197.593-2.8-1.41c-.948-4.148-2.298-9.26-4.651-15.758-5.728-15.817-16.547-38.208-36.89-64.789-2.766-3.612-7.431-5.775-11.6-7.65-4.17-1.876-7.838-3.107-7.838-3.107l-10.518-3.541 6.938 8.664s45.716 57.673 48.908 111.558c.095 1.61 1.027 3.155 2.129 4.041 1.101.887 2.294 1.326 3.521 1.635 2.454.618 5.198.68 8.088.568 5.78-.225 12.04-1.3 15.158-1.88l1.055-.198.73-.783c.24-.256.491-.5.768-.74l.33-.29.244-.365c.12-.18.215-.325.291-.435.386-.559.578-.826.822-1.17l.782-1.098-.223-1.33c-1.176-7.008-2.245-39.985 57.299-112.767 3.446-4.213 5.513-7.02 6.684-9.149.585-1.064 1.144-1.79 1.066-3.54-.04-.876-.607-2.286-1.668-2.975-1.062-.69-2.008-.65-2.643-.577zm-9.798 13.776c-56.545 69.628-58.824 103.836-57.489 114.853-.074.107-.1.142-.189.272-.069.1-.113.167-.17.252 0 .003 0 .005-.01.008v.002c-3.163.57-8.53 1.44-13.291 1.625-2.57.1-4.923-.044-6.244-.377-.513-.13-.673-.235-.799-.303-2.741-42.707-29.544-85.75-42.854-104.685 2.478 1.395 4.695 2.814 5.346 3.666 19.948 26.063 30.434 47.849 35.938 63.048 5.504 15.2 6.008 23.538 6.008 23.538l.162 2.501 2.459.485s.993.087 1.992.006c.217.037.43.084.65.1l-.668 3.025 2.205-1.738v1.863l1.586-2.233.56 2.17 2.772-5.27.252-.216.043-.057 2.047 2.15v-6.12c.01-.122.118-.333.117-.432 0-.401-.065-.5-.101-.756.022-.109-.03-.256-.016-.375v-.258c0-.031.01-.056.01-.09.033-.304.046-.403.127-.98v-.002c.064-.459-.097-.912-.125-1.375.427-1.334.847-2.782 1.185-4.574 2.985-15.8 13.736-35.373 23.797-50.74 9.916-15.146 18.897-26.056 19.158-26.373.203-.174 5.783-4.97 12.076-9.985 1.198-.954 2.27-1.703 3.465-2.625zm-68.627 93.375.022.066h-.01c0-.02-.012-.047-.016-.066zm3.047 3.21.142.2-.312.248-.01-.01c.058-.147 0-.199.103-.365l.076-.072zm-.196 1.093.528.06.096.06-.061.014c.033.002.05-.002.086.002l.138.088-.074-.084c.035.004.04-.004.078.002l.615.47.025.015c0 .004 0 .004.01.008l.022.017.01-.002.057.036v.013l.141.108-.152-.075v.002l.08.114-.114-.01-.04.123-.12-.137-.465-.04.362-.077-.182-.207-.666-.324-.3.062-.147-.129c.065-.009.245.018.336.012l-.252-.121zm-2.056.064.572.287-.447.514c-.03-.238-.083-.502-.125-.8zm2.713.012.057.006.022.015-.05.01zm-.803 1.375.111.103v-.008l.164.158-.908.192-.139-.096c-.013-.023 0 .036-.059-.168zm4.012 3.543-.108.103.01-.015.08-.075c.01-.007.013-.006.02-.013z" style="color:#000;fill:#000;-inkscape-stroke:none"/></g><g clip-path="url(#b)" transform="matrix(1.5882 0 0 1.56266 -2191.464 -476.278)"><path d="M1609.718 577.258c-4.362.501-28.045 20.86-28.045 20.86s-37.507 45.413-43.815 78.799a34.806 34.806 0 0 1-1.199 4.625c.145.4.195.893.113 1.478-.093.666-.112.748-.168 1.293h.01c.012.002.001.025-.01.027l.035.02c.113.064.07.304-.076.303l-.059-.002a.57.57 0 0 0-.064.138c-.01.032-.01.064-.014.096.203.67.768 1.79-.546 1.127.018.06.04.12.048.18-.015-.052-.043-.112-.07-.17v.121c0 .03.044.092 0 .092-.01.226-.038.436-.087.63.01.001.019 0 .023.016a1.26 1.26 0 0 0 .154-.433 4.34 4.34 0 0 1-.07.549c-.022.116.07-.23.086-.346 0-.253.01-.052.01.06v.319c-.064.057-.135.11-.201.166l-.037.279c.026-.013.047-.029.074-.041.528-.24 0 .288-.38.64l-.05.067c-.134.115-.092.077-.125.106-.227.244-.601.478-1.207.779-1.567.778-2.955.806-3.826.435-.703.108-1.17.016-1.17.016s-2.318-35.71-42.61-88.355c-3.743-4.89-17.889-9.65-17.889-9.65s46.327 57.848 49.618 113.401c.328 5.543 18.952 2.49 25.048 1.354.316-.338.65-.662 1.012-.977.108-.161.214-.324.324-.484.398-.575.609-.869.848-1.205-1.395-8.314-1.87-42.199 57.99-115.37 6.786-8.294 8.04-11.139 6.332-10.943zm-73.114 107.083v-.028l-.064-.008.062.033zm-.638.308c-.03.118-.065.23-.108.336v.748c.176-.248.351-.495.528-.742a.222.222 0 0 0 .039-.096 1.644 1.644 0 0 1-.055-.236c-.135-.002-.27-.006-.405-.01zm-.176 2.242-.045.08a2.54 2.54 0 0 1-.133.364l.154-.13c.01-.06.012-.094.024-.173a.333.333 0 0 0 0-.14zm-.236.567c-.301.572-.794.95-1.348 1.134-.05.058-.123.105-.168.165-.136.178.439-.127.754-.247.267-.287.434-.646.75-.898-.028.227-.1.415-.25.594l.13-.121c.228-.296.267-.327.306-.6a1.255 1.255 0 0 0-.184.121c.01-.045.01-.098.01-.148z" style="color:#000;fill:#000;stroke-width:6.5144;-inkscape-stroke:none"/><path d="m1609.527 574.002-.174.021.364-.021zm-.174.021h-.01c-1.621.187-2.483.757-3.693 1.444-1.21.687-2.554 1.567-4.021 2.592-2.935 2.049-6.34 4.67-9.602 7.27-6.526 5.199-12.48 10.32-12.48 10.32l-.211.181-.176.213s-9.487 11.484-19.756 27.17c-10.27 15.686-21.426 35.514-24.748 53.1a31.34 31.34 0 0 1-1.09 4.203l-.197.593-2.8-1.41c-.948-4.148-2.298-9.26-4.651-15.758-5.728-15.817-16.547-38.208-36.89-64.789-2.766-3.612-7.431-5.775-11.6-7.65-4.17-1.876-7.838-3.107-7.838-3.107l-10.518-3.541 6.938 8.664s45.716 57.673 48.908 111.558c.095 1.61 1.027 3.155 2.129 4.041 1.101.887 2.294 1.326 3.521 1.635 2.454.618 5.198.68 8.088.568 5.78-.225 12.04-1.3 15.158-1.88l1.055-.198.73-.783c.24-.256.491-.5.768-.74l.33-.29.244-.365c.12-.18.215-.325.291-.435.386-.559.578-.826.822-1.17l.782-1.098-.223-1.33c-1.176-7.008-2.245-39.985 57.299-112.767 3.446-4.213 5.513-7.02 6.684-9.149.585-1.064 1.144-1.79 1.066-3.54-.04-.876-.607-2.286-1.668-2.975-1.062-.69-2.008-.65-2.643-.577zm-9.798 13.776c-56.545 69.628-58.824 103.836-57.489 114.853-.074.107-.1.142-.189.272-.069.1-.113.167-.17.252 0 .003 0 .005-.01.008v.002c-3.163.57-8.53 1.44-13.291 1.625-2.57.1-4.923-.044-6.244-.377-.513-.13-.673-.235-.799-.303-2.741-42.707-29.544-85.75-42.854-104.685 2.478 1.395 4.695 2.814 5.346 3.666 19.948 26.063 30.434 47.849 35.938 63.048 5.504 15.2 6.008 23.538 6.008 23.538l.162 2.501 2.459.485s.993.087 1.992.006c.217.037.43.084.65.1l-.668 3.025 2.205-1.738v1.863l1.586-2.233.56 2.17 2.772-5.27.252-.216.043-.057 2.047 2.15v-6.12c.01-.122.118-.333.117-.432 0-.401-.065-.5-.101-.756.022-.109-.03-.256-.016-.375v-.258c0-.031.01-.056.01-.09.033-.304.046-.403.127-.98v-.002c.064-.459-.097-.912-.125-1.375.427-1.334.847-2.782 1.185-4.574 2.985-15.8 13.736-35.373 23.797-50.74 9.916-15.146 18.897-26.056 19.158-26.373.203-.174 5.783-4.97 12.076-9.985 1.198-.954 2.27-1.703 3.465-2.625zm-68.627 93.375.022.066h-.01c0-.02-.012-.047-.016-.066zm3.047 3.21.142.2-.312.248-.01-.01c.058-.147 0-.199.103-.365l.076-.072zm-.196 1.093.528.06.096.06-.061.014c.033.002.05-.002.086.002l.138.088-.074-.084c.035.004.04-.004.078.002l.615.47.025.015c0 .004 0 .004.01.008l.022.017.01-.002.057.036v.013l.141.108-.152-.075v.002l.08.114-.114-.01-.04.123-.12-.137-.465-.04.362-.077-.182-.207-.666-.324-.3.062-.147-.129c.065-.009.245.018.336.012l-.252-.121zm-2.056.064.572.287-.447.514c-.03-.238-.083-.502-.125-.8zm2.713.012.057.006.022.015-.05.01zm-.803 1.375.111.103v-.008l.164.158-.908.192-.139-.096c-.013-.023 0 .036-.059-.168zm4.012 3.543-.108.103.01-.015.08-.075c.01-.007.013-.006.02-.013z" style="color:#000;fill:#000;-inkscape-stroke:none"/></g><rect width="50.383" height="184.223" x="-267.438" y="611.135" rx="1.031" ry=".989" style="fill:#000;fill-opacity:1;stroke:#000;stroke-width:6.62385;stroke-miterlimit:4;stroke-dasharray:none;stroke-opacity:1" transform="scale(-1 1)"/><path d="M561.226 16.245c-42.977-.007-85.691 25.1-116.084 68.232-30.392 43.132-48.089 103.758-48.094 164.763 0 61.004 17.683 121.636 48.069 164.777 30.386 43.141 73.096 68.261 116.073 68.268 42.977.007 85.692-25.1 116.084-68.232 30.393-43.132 48.09-103.758 48.094-164.762 0-61.005-17.682-121.637-48.069-164.778-30.385-43.141-73.096-68.261-116.073-68.268Z" clip-path="url(#c)" style="fill:none;stroke:#000;stroke-width:30.7016;stroke-linecap:butt;stroke-linejoin:miter;stroke-miterlimit:4;stroke-dasharray:none;stroke-opacity:1" transform="matrix(-1 0 0 1 803.455 0)"/><g clip-path="url(#b)" transform="matrix(-1.5882 0 0 1.56266 2675.958 -476.278)"><path d="M1609.718 577.258c-4.362.501-28.045 20.86-28.045 20.86s-37.507 45.413-43.815 78.799a34.806 34.806 0 0 1-1.199 4.625c.145.4.195.893.113 1.478-.093.666-.112.748-.168 1.293h.01c.012.002.001.025-.01.027l.035.02c.113.064.07.304-.076.303l-.059-.002a.57.57 0 0 0-.064.138c-.01.032-.01.064-.014.096.203.67.768 1.79-.546 1.127.018.06.04.12.048.18-.015-.052-.043-.112-.07-.17v.121c0 .03.044.092 0 .092-.01.226-.038.436-.087.63.01.001.019 0 .023.016a1.26 1.26 0 0 0 .154-.433 4.34 4.34 0 0 1-.07.549c-.022.116.07-.23.086-.346 0-.253.01-.052.01.06v.319c-.064.057-.135.11-.201.166l-.037.279c.026-.013.047-.029.074-.041.528-.24 0 .288-.38.64l-.05.067c-.134.115-.092.077-.125.106-.227.244-.601.478-1.207.779-1.567.778-2.955.806-3.826.435-.703.108-1.17.016-1.17.016s-2.318-35.71-42.61-88.355c-3.743-4.89-17.889-9.65-17.889-9.65s46.327 57.848 49.618 113.401c.328 5.543 18.952 2.49 25.048 1.354.316-.338.65-.662 1.012-.977.108-.161.214-.324.324-.484.398-.575.609-.869.848-1.205-1.395-8.314-1.87-42.199 57.99-115.37 6.786-8.294 8.04-11.139 6.332-10.943zm-73.114 107.083v-.028l-.064-.008.062.033zm-.638.308c-.03.118-.065.23-.108.336v.748c.176-.248.351-.495.528-.742a.222.222 0 0 0 .039-.096 1.644 1.644 0 0 1-.055-.236c-.135-.002-.27-.006-.405-.01zm-.176 2.242-.045.08a2.54 2.54 0 0 1-.133.364l.154-.13c.01-.06.012-.094.024-.173a.333.333 0 0 0 0-.14zm-.236.567c-.301.572-.794.95-1.348 1.134-.05.058-.123.105-.168.165-.136.178.439-.127.754-.247.267-.287.434-.646.75-.898-.028.227-.1.415-.25.594l.13-.121c.228-.296.267-.327.306-.6a1.255 1.255 0 0 0-.184.121c.01-.045.01-.098.01-.148z" style="color:#000;fill:#000;stroke-width:6.5144;-inkscape-stroke:none"/><path d="m1609.527 574.002-.174.021.364-.021zm-.174.021h-.01c-1.621.187-2.483.757-3.693 1.444-1.21.687-2.554 1.567-4.021 2.592-2.935 2.049-6.34 4.67-9.602 7.27-6.526 5.199-12.48 10.32-12.48 10.32l-.211.181-.176.213s-9.487 11.484-19.756 27.17c-10.27 15.686-21.426 35.514-24.748 53.1a31.34 31.34 0 0 1-1.09 4.203l-.197.593-2.8-1.41c-.948-4.148-2.298-9.26-4.651-15.758-5.728-15.817-16.547-38.208-36.89-64.789-2.766-3.612-7.431-5.775-11.6-7.65-4.17-1.876-7.838-3.107-7.838-3.107l-10.518-3.541 6.938 8.664s45.716 57.673 48.908 111.558c.095 1.61 1.027 3.155 2.129 4.041 1.101.887 2.294 1.326 3.521 1.635 2.454.618 5.198.68 8.088.568 5.78-.225 12.04-1.3 15.158-1.88l1.055-.198.73-.783c.24-.256.491-.5.768-.74l.33-.29.244-.365c.12-.18.215-.325.291-.435.386-.559.578-.826.822-1.17l.782-1.098-.223-1.33c-1.176-7.008-2.245-39.985 57.299-112.767 3.446-4.213 5.513-7.02 6.684-9.149.585-1.064 1.144-1.79 1.066-3.54-.04-.876-.607-2.286-1.668-2.975-1.062-.69-2.008-.65-2.643-.577zm-9.798 13.776c-56.545 69.628-58.824 103.836-57.489 114.853-.074.107-.1.142-.189.272-.069.1-.113.167-.17.252 0 .003 0 .005-.01.008v.002c-3.163.57-8.53 1.44-13.291 1.625-2.57.1-4.923-.044-6.244-.377-.513-.13-.673-.235-.799-.303-2.741-42.707-29.544-85.75-42.854-104.685 2.478 1.395 4.695 2.814 5.346 3.666 19.948 26.063 30.434 47.849 35.938 63.048 5.504 15.2 6.008 23.538 6.008 23.538l.162 2.501 2.459.485s.993.087 1.992.006c.217.037.43.084.65.1l-.668 3.025 2.205-1.738v1.863l1.586-2.233.56 2.17 2.772-5.27.252-.216.043-.057 2.047 2.15v-6.12c.01-.122.118-.333.117-.432 0-.401-.065-.5-.101-.756.022-.109-.03-.256-.016-.375v-.258c0-.031.01-.056.01-.09.033-.304.046-.403.127-.98v-.002c.064-.459-.097-.912-.125-1.375.427-1.334.847-2.782 1.185-4.574 2.985-15.8 13.736-35.373 23.797-50.74 9.916-15.146 18.897-26.056 19.158-26.373.203-.174 5.783-4.97 12.076-9.985 1.198-.954 2.27-1.703 3.465-2.625zm-68.627 93.375.022.066h-.01c0-.02-.012-.047-.016-.066zm3.047 3.21.142.2-.312.248-.01-.01c.058-.147 0-.199.103-.365l.076-.072zm-.196 1.093.528.06.096.06-.061.014c.033.002.05-.002.086.002l.138.088-.074-.084c.035.004.04-.004.078.002l.615.47.025.015c0 .004 0 .004.01.008l.022.017.01-.002.057.036v.013l.141.108-.152-.075v.002l.08.114-.114-.01-.04.123-.12-.137-.465-.04.362-.077-.182-.207-.666-.324-.3.062-.147-.129c.065-.009.245.018.336.012l-.252-.121zm-2.056.064.572.287-.447.514c-.03-.238-.083-.502-.125-.8zm2.713.012.057.006.022.015-.05.01zm-.803 1.375.111.103v-.008l.164.158-.908.192-.139-.096c-.013-.023 0 .036-.059-.168zm4.012 3.543-.108.103.01-.015.08-.075c.01-.007.013-.006.02-.013z" style="color:#000;fill:#000;-inkscape-stroke:none"/></g><g clip-path="url(#b)" transform="matrix(1.5882 0 0 1.56266 -2191.464 -476.278)"><path d="M1609.718 577.258c-4.362.501-28.045 20.86-28.045 20.86s-37.507 45.413-43.815 78.799a34.806 34.806 0 0 1-1.199 4.625c.145.4.195.893.113 1.478-.093.666-.112.748-.168 1.293h.01c.012.002.001.025-.01.027l.035.02c.113.064.07.304-.076.303l-.059-.002a.57.57 0 0 0-.064.138c-.01.032-.01.064-.014.096.203.67.768 1.79-.546 1.127.018.06.04.12.048.18-.015-.052-.043-.112-.07-.17v.121c0 .03.044.092 0 .092-.01.226-.038.436-.087.63.01.001.019 0 .023.016a1.26 1.26 0 0 0 .154-.433 4.34 4.34 0 0 1-.07.549c-.022.116.07-.23.086-.346 0-.253.01-.052.01.06v.319c-.064.057-.135.11-.201.166l-.037.279c.026-.013.047-.029.074-.041.528-.24 0 .288-.38.64l-.05.067c-.134.115-.092.077-.125.106-.227.244-.601.478-1.207.779-1.567.778-2.955.806-3.826.435-.703.108-1.17.016-1.17.016s-2.318-35.71-42.61-88.355c-3.743-4.89-17.889-9.65-17.889-9.65s46.327 57.848 49.618 113.401c.328 5.543 18.952 2.49 25.048 1.354.316-.338.65-.662 1.012-.977.108-.161.214-.324.324-.484.398-.575.609-.869.848-1.205-1.395-8.314-1.87-42.199 57.99-115.37 6.786-8.294 8.04-11.139 6.332-10.943zm-73.114 107.083v-.028l-.064-.008.062.033zm-.638.308c-.03.118-.065.23-.108.336v.748c.176-.248.351-.495.528-.742a.222.222 0 0 0 .039-.096 1.644 1.644 0 0 1-.055-.236c-.135-.002-.27-.006-.405-.01zm-.176 2.242-.045.08a2.54 2.54 0 0 1-.133.364l.154-.13c.01-.06.012-.094.024-.173a.333.333 0 0 0 0-.14zm-.236.567c-.301.572-.794.95-1.348 1.134-.05.058-.123.105-.168.165-.136.178.439-.127.754-.247.267-.287.434-.646.75-.898-.028.227-.1.415-.25.594l.13-.121c.228-.296.267-.327.306-.6a1.255 1.255 0 0 0-.184.121c.01-.045.01-.098.01-.148z" style="color:#000;fill:#000;stroke-width:6.5144;-inkscape-stroke:none"/><path d="m1609.527 574.002-.174.021.364-.021zm-.174.021h-.01c-1.621.187-2.483.757-3.693 1.444-1.21.687-2.554 1.567-4.021 2.592-2.935 2.049-6.34 4.67-9.602 7.27-6.526 5.199-12.48 10.32-12.48 10.32l-.211.181-.176.213s-9.487 11.484-19.756 27.17c-10.27 15.686-21.426 35.514-24.748 53.1a31.34 31.34 0 0 1-1.09 4.203l-.197.593-2.8-1.41c-.948-4.148-2.298-9.26-4.651-15.758-5.728-15.817-16.547-38.208-36.89-64.789-2.766-3.612-7.431-5.775-11.6-7.65-4.17-1.876-7.838-3.107-7.838-3.107l-10.518-3.541 6.938 8.664s45.716 57.673 48.908 111.558c.095 1.61 1.027 3.155 2.129 4.041 1.101.887 2.294 1.326 3.521 1.635 2.454.618 5.198.68 8.088.568 5.78-.225 12.04-1.3 15.158-1.88l1.055-.198.73-.783c.24-.256.491-.5.768-.74l.33-.29.244-.365c.12-.18.215-.325.291-.435.386-.559.578-.826.822-1.17l.782-1.098-.223-1.33c-1.176-7.008-2.245-39.985 57.299-112.767 3.446-4.213 5.513-7.02 6.684-9.149.585-1.064 1.144-1.79 1.066-3.54-.04-.876-.607-2.286-1.668-2.975-1.062-.69-2.008-.65-2.643-.577zm-9.798 13.776c-56.545 69.628-58.824 103.836-57.489 114.853-.074.107-.1.142-.189.272-.069.1-.113.167-.17.252 0 .003 0 .005-.01.008v.002c-3.163.57-8.53 1.44-13.291 1.625-2.57.1-4.923-.044-6.244-.377-.513-.13-.673-.235-.799-.303-2.741-42.707-29.544-85.75-42.854-104.685 2.478 1.395 4.695 2.814 5.346 3.666 19.948 26.063 30.434 47.849 35.938 63.048 5.504 15.2 6.008 23.538 6.008 23.538l.162 2.501 2.459.485s.993.087 1.992.006c.217.037.43.084.65.1l-.668 3.025 2.205-1.738v1.863l1.586-2.233.56 2.17 2.772-5.27.252-.216.043-.057 2.047 2.15v-6.12c.01-.122.118-.333.117-.432 0-.401-.065-.5-.101-.756.022-.109-.03-.256-.016-.375v-.258c0-.031.01-.056.01-.09.033-.304.046-.403.127-.98v-.002c.064-.459-.097-.912-.125-1.375.427-1.334.847-2.782 1.185-4.574 2.985-15.8 13.736-35.373 23.797-50.74 9.916-15.146 18.897-26.056 19.158-26.373.203-.174 5.783-4.97 12.076-9.985 1.198-.954 2.27-1.703 3.465-2.625zm-68.627 93.375.022.066h-.01c0-.02-.012-.047-.016-.066zm3.047 3.21.142.2-.312.248-.01-.01c.058-.147 0-.199.103-.365l.076-.072zm-.196 1.093.528.06.096.06-.061.014c.033.002.05-.002.086.002l.138.088-.074-.084c.035.004.04-.004.078.002l.615.47.025.015c0 .004 0 .004.01.008l.022.017.01-.002.057.036v.013l.141.108-.152-.075v.002l.08.114-.114-.01-.04.123-.12-.137-.465-.04.362-.077-.182-.207-.666-.324-.3.062-.147-.129c.065-.009.245.018.336.012l-.252-.121zm-2.056.064.572.287-.447.514c-.03-.238-.083-.502-.125-.8zm2.713.012.057.006.022.015-.05.01zm-.803 1.375.111.103v-.008l.164.158-.908.192-.139-.096c-.013-.023 0 .036-.059-.168zm4.012 3.543-.108.103.01-.015.08-.075c.01-.007.013-.006.02-.013z" style="color:#000;fill:#000;-inkscape-stroke:none"/></g><path d="M239.88 37.021a141.537 211.745 0 0 1 1.419-.044 141.537 211.745 0 0 1 4.674.421v422.645a141.537 211.745 0 0 1-4.674.422 141.537 211.745 0 0 1-1.418-.13z" style="opacity:.993343;fill:#000;stroke:none;stroke-width:.3;stroke-miterlimit:4;stroke-dasharray:none;stroke-opacity:1" transform="matrix(.9275 0 0 .93275 18.44 16.126)"/><path d="M381.709 230.479a141.537 211.745 0 0 1 .246 6.091H99.568a141.537 211.745 0 0 1 .254-6.091zM321.055 304.201H105.152a141.537 211.745 0 0 1-1.037-4.982 141.537 211.745 0 0 1-.137-1.11H328.84a126.036 124.704 0 0 0-2.448 1.776 126.036 124.704 0 0 0-4.289 3.406 126.036 124.704 0 0 0-1.048.91zM280.006 371.33H125.978a141.537 211.745 0 0 1-1.152-2.2 141.537 211.745 0 0 1-1.572-3.892h158.303a126.036 124.704 0 0 0-1.036 3.823 126.036 124.704 0 0 0-.515 2.27zM370.974 160.691a141.537 211.745 0 0 1 1.833 6.092H111.465a141.537 211.745 0 0 1 1.142-4.13 141.537 211.745 0 0 1 .608-1.962zM336.39 90.283a141.537 211.745 0 0 1 .198.23 141.537 211.745 0 0 1 3.918 5.862H144.674a141.537 211.745 0 0 1 2.197-3.154 141.537 211.745 0 0 1 2.223-2.938z" style="opacity:.993343;fill:#000;stroke:none;stroke-width:.3;stroke-miterlimit:4;stroke-dasharray:none;stroke-opacity:1" transform="matrix(.9275 0 0 .93275 18.44 16.126)"/><path d="M133.176 112.184a141.537 211.745 0 0 1 1.664-2.954 141.537 211.745 0 0 1 4.064-6.619 141.537 211.745 0 0 1 .363-.543v293.635a141.537 211.745 0 0 1-4.12-6.164 141.537 211.745 0 0 1-1.971-3.764zM185.978 54.768a141.537 211.745 0 0 1 4.073-2.6 141.537 211.745 0 0 1 2.02-1.14V446.25a141.537 211.745 0 0 1-6.093-4.102zM344.26 103.363a141.537 211.745 0 0 1 3.66 5.477 141.537 211.745 0 0 1 2.431 4.642V286.38a126.036 124.704 0 0 0-2.144.965 126.036 124.704 0 0 0-3.947 1.99zM289.617 49.947a141.537 211.745 0 0 1 2.895 1.35 141.537 211.745 0 0 1 3.197 2.152v279.572a126.036 124.704 0 0 0-2.225 3.592 126.036 124.704 0 0 0-3.148 5.739 126.036 124.704 0 0 0-.719 1.492z" style="opacity:.993343;fill:#000;stroke:none;stroke-width:.3;stroke-miterlimit:4;stroke-dasharray:none;stroke-opacity:1" transform="matrix(.9275 0 0 .93275 18.44 16.126)"/></g></svg>