<svg xmlns="http://www.w3.org/2000/svg" width="870" height="600"><defs><clipPath id="a" clipPathUnits="userSpaceOnUse"><path d="m1101.525 236.071 44.18 44.093c.112-.13.221-.263.334-.393.256-.289.529-.56.807-.828.26-.25.534-.482.817-.705.12-.095.241-.19.355-.293.067-.062.13-.129.192-.197.056-.062.107-.127.158-.192.011-.026.124-.204.134-.224.093-.16.174-.325.254-.492.095-.194.164-.402.237-.607.07-.195.131-.394.19-.595l-.15-.444.294-.074.041-.156.231.088.144-.037c.047-.247.098-.492.14-.741.087-.631.153-1.268.215-1.905.068-.722.124-1.447.177-2.172.055-.76.11-1.52.157-2.282.044-.724.082-1.45.119-2.175l7.256 1.225c-.039.754-.078 1.508-.124 2.26-.05.786-.107 1.57-.164 2.355-.057.782-.118 1.564-.191 2.343-.011.113-.028.225-.04.338l.03.005c-.016.28-.037.56-.061.84l.277.115c.044-.085.089-.169.132-.254l.29-.579c.083-.168.169-.336.25-.505.028-.06.054-.12.083-.179 0-.011.015-.045.014-.032 0 .01 0 .021-.01.03l1.75.694c-.046.153-.118.294-.186.436-.086.18-.175.355-.263.533l-.292.583c-.1.199-.202.397-.306.594l-.1.185.225.117-.204.494a33.478 33.478 0 0 1-.498 1.124 18.402 18.402 0 0 1-.56 1.11 69.797 69.797 0 0 1-.195.364c-.078.148-.153.297-.232.446l-.229.43c-.08.15-.161.3-.245.45-.082.141-.165.283-.245.426-.081.142-.162.285-.24.428l-.243.44-.238.429-.233.421a84.19 84.19 0 0 1-.232.403c-.078.132-.155.264-.234.395-.078.13-.158.258-.238.386l-.23.37c-.08.127-.162.254-.244.38l-.249.393-.258.399-.085.131-.068.138c-.053.105-.103.21-.157.314a13.885 13.885 0 0 1-.536.972l22.564 22.519 73.27-76.23-74.27-74.12z" style="fill:red;fill-opacity:1;fill-rule:nonzero;stroke:none;stroke-width:10.1262"/></clipPath><clipPath id="b" clipPathUnits="userSpaceOnUse"><path d="m1101.525 236.071 44.18 44.093c.112-.13.221-.263.334-.393.256-.289.529-.56.807-.828.26-.25.534-.482.817-.705.12-.095.241-.19.355-.293.067-.062.13-.129.192-.197.056-.062.107-.127.158-.192.011-.026.124-.204.134-.224.093-.16.174-.325.254-.492.095-.194.164-.402.237-.607.07-.195.131-.394.19-.595l-.15-.444.294-.074.041-.156.231.088.144-.037c.047-.247.098-.492.14-.741.087-.631.153-1.268.215-1.905.068-.722.124-1.447.177-2.172.055-.76.11-1.52.157-2.282.044-.724.082-1.45.119-2.175l7.256 1.225c-.039.754-.078 1.508-.124 2.26-.05.786-.107 1.57-.164 2.355-.057.782-.118 1.564-.191 2.343-.011.113-.028.225-.04.338l.03.005c-.016.28-.037.56-.061.84l.277.115c.044-.085.089-.169.132-.254l.29-.579c.083-.168.169-.336.25-.505.028-.06.054-.12.083-.179 0-.011.015-.045.014-.032 0 .01 0 .021-.01.03l1.75.694c-.046.153-.118.294-.186.436-.086.18-.175.355-.263.533l-.292.583c-.1.199-.202.397-.306.594l-.1.185.225.117-.204.494a33.478 33.478 0 0 1-.498 1.124 18.402 18.402 0 0 1-.56 1.11 69.797 69.797 0 0 1-.195.364c-.078.148-.153.297-.232.446l-.229.43c-.08.15-.161.3-.245.45-.082.141-.165.283-.245.426-.081.142-.162.285-.24.428l-.243.44-.238.429-.233.421a84.19 84.19 0 0 1-.232.403c-.078.132-.155.264-.234.395-.078.13-.158.258-.238.386l-.23.37c-.08.127-.162.254-.244.38l-.249.393-.258.399-.085.131-.068.138c-.053.105-.103.21-.157.314a13.885 13.885 0 0 1-.536.972l22.564 22.519 73.27-76.23-74.27-74.12z" style="fill:red;fill-opacity:1;fill-rule:nonzero;stroke:none;stroke-width:10.1262"/></clipPath></defs><path d="M1830 20c-18.326 0-36.54 7.544-49.498 20.503C1767.544 53.46 1760 71.674 1760 90s7.544 36.54 20.503 49.497C1793.46 152.456 1811.674 160 1830 160s36.54-7.544 49.498-20.503C1892.456 126.54 1900 108.326 1900 90s-7.544-36.54-20.503-49.497C1866.54 27.544 1848.326 20 1830 20ZM1396 20c-18.326 0-36.54 7.544-49.498 20.503C1333.544 53.46 1326 71.674 1326 90s7.544 36.54 20.503 49.497C1359.46 152.456 1377.674 160 1396 160s36.54-7.544 49.498-20.503C1458.456 126.54 1466 108.326 1466 90s-7.544-36.54-20.503-49.497C1432.54 27.544 1414.326 20 1396 20Z" style="fill:#d7e4e3;fill-opacity:1;stroke:none;stroke-width:1px;stroke-linecap:butt;stroke-linejoin:miter;stroke-opacity:1" transform="translate(-1033.435 -15.21)"/><path d="M1540 167c-18.326 0-36.54 7.544-49.498 20.503C1477.544 200.46 1470 218.674 1470 237s7.544 36.54 20.503 49.497C1503.46 299.456 1521.674 307 1540 307s36.54-7.544 49.498-20.503C1602.456 273.54 1610 255.326 1610 237s-7.544-36.54-20.503-49.497C1576.54 174.544 1558.326 167 1540 167ZM1252 20c-18.326 0-36.54 7.544-49.498 20.503C1189.544 53.46 1182 71.674 1182 90s7.544 36.54 20.503 49.497C1215.46 152.456 1233.674 160 1252 160s36.54-7.544 49.498-20.503C1314.456 126.54 1322 108.326 1322 90s-7.544-36.54-20.503-49.497C1288.54 27.544 1270.326 20 1252 20Z" style="fill:#fff;fill-opacity:1;stroke:none;stroke-width:1px;stroke-linecap:butt;stroke-linejoin:miter;stroke-opacity:1" transform="translate(-1033.435 -15.21)"/><path d="M1686 164c-18.326 0-36.54 7.544-49.498 20.503C1623.544 197.46 1616 215.674 1616 234s7.544 36.54 20.503 49.497C1649.46 296.456 1667.674 304 1686 304s36.54-7.544 49.498-20.503C1748.456 270.54 1756 252.326 1756 234s-7.544-36.54-20.503-49.497C1722.54 171.544 1704.326 164 1686 164Z" style="fill:#d7e4e3;fill-opacity:1;stroke:none;stroke-width:1px;stroke-linecap:butt;stroke-linejoin:miter;stroke-opacity:1" transform="translate(-1033.435 -15.21)"/><path d="M1540 310c-18.326 0-36.54 7.544-49.498 20.503C1477.544 343.46 1470 361.674 1470 380s7.544 36.54 20.503 49.497C1503.46 442.456 1521.674 450 1540 450s36.54-7.544 49.498-20.503C1602.456 416.54 1610 398.326 1610 380s-7.544-36.54-20.503-49.497C1576.54 317.544 1558.326 310 1540 310ZM1108 20c-18.326 0-36.54 7.544-49.498 20.503C1045.544 53.46 1038 71.674 1038 90s7.544 36.54 20.503 49.497C1071.46 152.456 1089.674 160 1108 160s36.54-7.544 49.498-20.503C1170.456 126.54 1178 108.326 1178 90s-7.544-36.54-20.503-49.497C1144.54 27.544 1126.326 20 1108 20ZM1830 310c-18.326 0-36.54 7.544-49.498 20.503C1767.544 343.46 1760 361.674 1760 380s7.544 36.54 20.503 49.497C1793.46 442.456 1811.674 450 1830 450s36.54-7.544 49.498-20.503C1892.456 416.54 1900 398.326 1900 380s-7.544-36.54-20.503-49.497C1866.54 317.544 1848.326 310 1830 310Z" style="fill:#f5ff80;fill-opacity:1;stroke:none;stroke-width:1px;stroke-linecap:butt;stroke-linejoin:miter;stroke-opacity:1" transform="translate(-1033.435 -15.21)"/><path d="M1684 20c-18.326 0-36.54 7.544-49.498 20.503C1621.544 53.46 1614 71.674 1614 90s7.544 36.54 20.503 49.497C1647.46 152.456 1665.674 160 1684 160s36.54-7.544 49.498-20.503C1746.456 126.54 1754 108.326 1754 90s-7.544-36.54-20.503-49.497C1720.54 27.544 1702.326 20 1684 20Z" style="fill:#d7e4e3;fill-opacity:1;stroke:none;stroke-width:1px;stroke-linecap:butt;stroke-linejoin:miter;stroke-opacity:1" transform="translate(-1033.435 -15.21)"/><g style="fill:#fff;fill-opacity:1"><path d="M1396 164c-18.326 0-36.54 7.544-49.498 20.503C1333.544 197.46 1326 215.674 1326 234s7.544 36.54 20.503 49.497C1359.46 296.456 1377.674 304 1396 304s36.54-7.544 49.498-20.503C1458.456 270.54 1466 252.326 1466 234s-7.544-36.54-20.503-49.497C1432.54 171.544 1414.326 164 1396 164ZM1540 20c-18.326 0-36.54 7.544-49.498 20.503C1477.544 53.46 1470 71.674 1470 90s7.544 36.54 20.503 49.497C1503.46 152.456 1521.674 160 1540 160s36.54-7.544 49.498-20.503C1602.456 126.54 1610 108.326 1610 90s-7.544-36.54-20.503-49.497C1576.54 27.544 1558.326 20 1540 20Z" style="fill:#fff;fill-opacity:1;stroke:none;stroke-width:1px;stroke-linecap:butt;stroke-linejoin:miter;stroke-opacity:1" transform="translate(-743.424 131.01)"/><g style="fill:#fff;fill-opacity:1" transform="translate(-743.424 131.01)"><g clip-path="url(#a)" style="fill:#fff;fill-opacity:1;stroke-width:.85698" transform="matrix(.87318 .79432 -.87492 .76349 624.038 -969.432)"><path d="M1152.086 183.469a112.956 112.956 0 0 1 5.08 5.797 101.347 101.347 0 0 1 4.375 5.736 89.49 89.49 0 0 1 3.7 5.674 80.364 80.364 0 0 1 3.062 5.603 73.182 73.182 0 0 1 2.46 5.52 68.098 68.098 0 0 1 1.895 5.435c.541 1.796.991 3.574 1.362 5.336.37 1.762.659 3.507.87 5.233a61.435 61.435 0 0 1 .403 10.111 62.686 62.686 0 0 1-.707 7.086h24.261l1.153-60Z" style="fill:#fff;fill-opacity:1;stroke:none;stroke-width:26.5681;stroke-opacity:1"/><path d="M1152.086 286.531a112.956 112.956 0 0 0 5.08-5.797 101.347 101.347 0 0 0 4.375-5.736 89.49 89.49 0 0 0 3.7-5.674 80.364 80.364 0 0 0 3.062-5.603 73.182 73.182 0 0 0 2.46-5.52 68.098 68.098 0 0 0 1.895-5.435c.541-1.796.991-3.574 1.362-5.336.37-1.762.659-3.507.87-5.233a61.435 61.435 0 0 0 .403-10.111 62.686 62.686 0 0 0-.707-7.086h24.261l1.153 60Z" style="fill:#fff;fill-opacity:1;stroke:none;stroke-width:26.5681;stroke-opacity:1"/></g><g clip-path="url(#a)" style="fill:#fff;fill-opacity:1;stroke:none;stroke-width:.85698" transform="matrix(-.87318 -.79432 .87492 -.76349 2310.275 1293.054)"><path d="M1152.086 183.469a112.956 112.956 0 0 1 5.08 5.797 101.347 101.347 0 0 1 4.375 5.736 89.49 89.49 0 0 1 3.7 5.674 80.364 80.364 0 0 1 3.062 5.603 73.182 73.182 0 0 1 2.46 5.52 68.098 68.098 0 0 1 1.895 5.435c.541 1.796.991 3.574 1.362 5.336.37 1.762.659 3.507.87 5.233a61.435 61.435 0 0 1 .403 10.111 62.686 62.686 0 0 1-.707 7.086h24.261l1.153-60Z" style="fill:#fff;fill-opacity:1;stroke:none;stroke-width:26.5681;stroke-opacity:1"/><path d="M1152.086 286.531a112.956 112.956 0 0 0 5.08-5.797 101.347 101.347 0 0 0 4.375-5.736 89.49 89.49 0 0 0 3.7-5.674 80.364 80.364 0 0 0 3.062-5.603 73.182 73.182 0 0 0 2.46-5.52 68.098 68.098 0 0 0 1.895-5.435c.541-1.796.991-3.574 1.362-5.336.37-1.762.659-3.507.87-5.233a61.435 61.435 0 0 0 .403-10.111 62.686 62.686 0 0 0-.707-7.086h24.261l1.153 60Z" style="fill:#fff;fill-opacity:1;stroke:none;stroke-width:26.5681;stroke-opacity:1"/></g><rect width="25" height="75" x="1150.29" y="-948.833" rx="3.896" ry="3.74" style="opacity:1;fill:#fff;fill-opacity:1;stroke:none;stroke-width:31.002;stroke-opacity:1" transform="rotate(44.712)"/></g></g><path d="M1830 454c-18.326 0-36.54 7.544-49.498 20.503C1767.544 487.46 1760 505.674 1760 524s7.544 36.54 20.503 49.497C1793.46 586.456 1811.674 594 1830 594s36.54-7.544 49.498-20.503C1892.456 560.54 1900 542.326 1900 524s-7.544-36.54-20.503-49.497C1866.54 461.544 1848.326 454 1830 454ZM1252 164c-18.326 0-36.54 7.544-49.498 20.503C1189.544 197.46 1182 215.674 1182 234s7.544 36.54 20.503 49.497C1215.46 296.456 1233.674 304 1252 304s36.54-7.544 49.498-20.503C1314.456 270.54 1322 252.326 1322 234s-7.544-36.54-20.503-49.497C1288.54 171.544 1270.326 164 1252 164Z" style="fill:#fff;fill-opacity:1;stroke:none;stroke-width:1px;stroke-linecap:butt;stroke-linejoin:miter;stroke-opacity:1" transform="translate(-1033.435 -15.21)"/><path d="M1396 164c-18.326 0-36.54 7.544-49.498 20.503C1333.544 197.46 1326 215.674 1326 234s7.544 36.54 20.503 49.497C1359.46 296.456 1377.674 304 1396 304s36.54-7.544 49.498-20.503C1458.456 270.54 1466 252.326 1466 234s-7.544-36.54-20.503-49.497C1432.54 171.544 1414.326 164 1396 164ZM1540 20c-18.326 0-36.54 7.544-49.498 20.503C1477.544 53.46 1470 71.674 1470 90s7.544 36.54 20.503 49.497C1503.46 152.456 1521.674 160 1540 160s36.54-7.544 49.498-20.503C1602.456 126.54 1610 108.326 1610 90s-7.544-36.54-20.503-49.497C1576.54 27.544 1558.326 20 1540 20Z" style="fill:#f5ff80;fill-opacity:1;stroke:none;stroke-width:1px;stroke-linecap:butt;stroke-linejoin:miter;stroke-opacity:1" transform="translate(-1033.435 -13.21)"/><g transform="translate(-1033.435 -13.21)"><g clip-path="url(#b)" style="stroke-width:.85698" transform="matrix(.87318 .79432 -.87492 .76349 624.038 -969.432)"><path d="M1152.086 183.469a112.956 112.956 0 0 1 5.08 5.797 101.347 101.347 0 0 1 4.375 5.736 89.49 89.49 0 0 1 3.7 5.674 80.364 80.364 0 0 1 3.062 5.603 73.182 73.182 0 0 1 2.46 5.52 68.098 68.098 0 0 1 1.895 5.435c.541 1.796.991 3.574 1.362 5.336.37 1.762.659 3.507.87 5.233a61.435 61.435 0 0 1 .403 10.111 62.686 62.686 0 0 1-.707 7.086h24.261l1.153-60Z" style="fill:#f5ff80;fill-opacity:1;stroke:none;stroke-width:26.5681;stroke-opacity:1"/><path d="M1152.086 286.531a112.956 112.956 0 0 0 5.08-5.797 101.347 101.347 0 0 0 4.375-5.736 89.49 89.49 0 0 0 3.7-5.674 80.364 80.364 0 0 0 3.062-5.603 73.182 73.182 0 0 0 2.46-5.52 68.098 68.098 0 0 0 1.895-5.435c.541-1.796.991-3.574 1.362-5.336.37-1.762.659-3.507.87-5.233a61.435 61.435 0 0 0 .403-10.111 62.686 62.686 0 0 0-.707-7.086h24.261l1.153 60Z" style="fill:#f5ff80;fill-opacity:1;stroke:none;stroke-width:26.5681;stroke-opacity:1"/></g><g clip-path="url(#b)" style="stroke:none;stroke-width:.85698" transform="matrix(-.87318 -.79432 .87492 -.76349 2310.275 1293.054)"><path d="M1152.086 183.469a112.956 112.956 0 0 1 5.08 5.797 101.347 101.347 0 0 1 4.375 5.736 89.49 89.49 0 0 1 3.7 5.674 80.364 80.364 0 0 1 3.062 5.603 73.182 73.182 0 0 1 2.46 5.52 68.098 68.098 0 0 1 1.895 5.435c.541 1.796.991 3.574 1.362 5.336.37 1.762.659 3.507.87 5.233a61.435 61.435 0 0 1 .403 10.111 62.686 62.686 0 0 1-.707 7.086h24.261l1.153-60Z" style="fill:#f5ff80;fill-opacity:1;stroke:none;stroke-width:26.5681;stroke-opacity:1"/><path d="M1152.086 286.531a112.956 112.956 0 0 0 5.08-5.797 101.347 101.347 0 0 0 4.375-5.736 89.49 89.49 0 0 0 3.7-5.674 80.364 80.364 0 0 0 3.062-5.603 73.182 73.182 0 0 0 2.46-5.52 68.098 68.098 0 0 0 1.895-5.435c.541-1.796.991-3.574 1.362-5.336.37-1.762.659-3.507.87-5.233a61.435 61.435 0 0 0 .403-10.111 62.686 62.686 0 0 0-.707-7.086h24.261l1.153 60Z" style="fill:#f5ff80;fill-opacity:1;stroke:none;stroke-width:26.5681;stroke-opacity:1"/></g><rect width="25" height="75" x="1150.29" y="-948.833" rx="3.896" ry="3.74" style="opacity:1;fill:#f5ff80;fill-opacity:1;stroke:none;stroke-width:31.002;stroke-opacity:1" transform="rotate(44.712)"/></g></svg>