<?xml version="1.0" encoding="UTF-8" standalone="no"?>
<!-- Created with Inkscape (http://www.inkscape.org/) -->

<svg
   width="50px"
   height="50px"
   viewBox="0 0 50 50"
   version="1.1"
   id="SVGRoot"
   xmlns="http://www.w3.org/2000/svg"
   xmlns:svg="http://www.w3.org/2000/svg">
  <defs
     id="defs1573" />
  <g
     id="layer1">
    <path
       id="path990"
       style="stroke-width:1.27114"
       d="M 25.868194,0.80025256 C 17.300686,0.74814426 6.9243806,30.007345 6.1146609,49.154583 c -0.02924,0.901241 0.6736827,0.873225 0.6863958,0.07622 C 7.3056987,39.837049 15.052033,5.1590124 25.868194,5.1475774 33.345063,5.1285057 41.209653,25.596454 43.104928,36.188888 c 0.190677,0.728365 0.90504,0.549117 0.762671,-0.152557 C 43.056613,28.157787 34.358159,0.78627076 25.868194,0.80025256 Z m 0.0719,9.37945844 a 1.7541782,1.7541782 0 0 0 -0.0719,0.0012 1.7109594,1.7109594 0 0 0 -1.754185,1.754185 1.7834145,1.7834145 0 0 0 1.754185,1.830464 1.82282,1.82282 0 0 0 1.829184,-1.830464 1.7541782,1.7541782 0 0 0 -1.757287,-1.755772 z" fill="currentColor" stroke="currentColor"/>
  </g>
</svg>
